<svg width="26" height="26" viewBox="0 0 26 26" fill="none" xmlns="http://www.w3.org/2000/svg">
<g clip-path="url(#clip0_9_148)">
<path d="M24.9892 21.7048L20.1205 16.8371C19.9008 16.6174 19.6029 16.4953 19.2904 16.4953H18.4945C19.8422 14.7717 20.643 12.6042 20.643 10.2458C20.643 4.63593 16.0966 0.0905151 10.4862 0.0905151C4.87589 0.0905151 0.32901 4.63593 0.32901 10.2458C0.32901 15.8557 4.8754 20.4011 10.4862 20.4011C12.8446 20.4011 15.0131 19.6003 16.7367 18.2526V19.0485C16.7367 19.361 16.8588 19.6589 17.0785 19.8786L21.9472 24.7463C22.4062 25.2053 23.1483 25.2053 23.6024 24.7463L24.9843 23.3644C25.4433 22.9055 25.4433 22.1638 24.9892 21.7048ZM10.4862 17.2761C6.60245 17.2761 3.45499 14.1345 3.45499 10.2458C3.45499 6.36249 6.59708 3.21552 10.4862 3.21552C14.37 3.21552 17.5175 6.35712 17.5175 10.2458C17.5175 14.1291 14.3754 17.2761 10.4862 17.2761ZM10.4872 5.55927C8.496 5.55927 6.88174 7.17303 6.88174 9.16425C6.88174 10.7736 9.23819 13.7077 10.141 14.7726C10.1834 14.8233 10.2363 14.8641 10.2961 14.892C10.356 14.92 10.4212 14.9345 10.4872 14.9345C10.5532 14.9345 10.6185 14.92 10.6783 14.892C10.7381 14.8641 10.7911 14.8233 10.8334 14.7726C11.7362 13.7077 14.0927 10.7741 14.0927 9.16425C14.0927 7.17303 12.4784 5.55927 10.4872 5.55927ZM10.4872 10.2468C9.83975 10.2468 9.31534 9.72186 9.31534 9.07489C9.31534 8.42743 9.84024 7.90302 10.4872 7.90302C11.1342 7.90302 11.6591 8.42743 11.6591 9.07489C11.6591 9.72186 11.1342 10.2468 10.4872 10.2468Z" fill="white"/>
</g>
<defs>
<clipPath id="clip0_9_148">
<rect width="25" height="25" fill="white" transform="translate(0.32901 0.0905151)"/>
</clipPath>
</defs>
</svg>
