<svg width="26" height="23" viewBox="0 0 26 23" fill="none" xmlns="http://www.w3.org/2000/svg">
<path d="M22.4861 10.2668C22.1866 8.65217 20.7804 7.42388 19.079 7.42388C18.5452 7.42388 18.0417 7.55408 17.5903 7.7711C16.8351 6.72509 15.6111 6.03499 14.2179 6.03499C11.9176 6.03499 10.0512 7.90131 10.0512 10.2017C10.0512 10.2234 10.0599 10.2494 10.0599 10.2711C8.47137 10.5923 7.27345 11.9898 7.27345 13.6739C7.27345 15.5923 8.82727 17.1461 10.7457 17.1461H21.8568C23.7752 17.1461 25.329 15.5923 25.329 13.6739C25.329 11.9725 24.1051 10.5619 22.4861 10.2668ZM5.71529 11.7598C4.09203 10.1365 4.09203 7.49332 5.71529 5.86572C7.21703 4.36398 9.58248 4.26849 11.2144 5.54453C12.0825 4.98464 13.1068 4.6461 14.2179 4.6461C14.2483 4.6461 14.2743 4.65478 14.3047 4.65478L14.691 3.49592C14.8386 3.05322 14.4176 2.63655 13.9748 2.78412L10.7066 3.87353L9.16582 0.791931C8.95748 0.375264 8.36286 0.375264 8.15453 0.791931L6.61373 3.87353L3.3455 2.78412C2.90279 2.63655 2.48613 3.05756 2.6337 3.50026L3.72311 6.76849L0.64151 8.30929C0.224843 8.51763 0.224843 9.11224 0.64151 9.32058L3.72311 10.8614L2.6337 14.1296C2.48613 14.5723 2.90713 14.989 3.34984 14.8458L5.91929 13.9907C5.91061 13.8865 5.88891 13.7867 5.88891 13.6782C5.88891 13.1357 5.98873 12.6148 6.158 12.1201C6.00175 12.0029 5.84984 11.8944 5.71529 11.7598ZM8.74481 9.24245C8.93144 8.17908 9.43057 7.22856 10.1294 6.46467C9.70401 6.19558 9.20054 6.03499 8.66234 6.03499C7.13023 6.03499 5.88457 7.28065 5.88457 8.81276C5.88457 9.6244 6.24047 10.3492 6.80036 10.857C7.29082 10.1669 7.95488 9.60269 8.74481 9.24245ZM23.0938 18.6261C22.7639 18.4395 22.3386 18.548 22.1476 18.8865L20.559 21.6643C20.3681 21.9985 20.4853 22.4195 20.8195 22.6105C20.928 22.6713 21.0452 22.7017 21.1623 22.7017C21.4011 22.7017 21.6354 22.5758 21.7656 22.3501L23.3542 19.5723C23.5408 19.2381 23.428 18.8171 23.0938 18.6261ZM18.9271 18.6261C18.5972 18.4395 18.1719 18.548 17.9809 18.8865L16.3924 21.6643C16.2014 21.9985 16.3186 22.4195 16.6528 22.6105C16.7613 22.6713 16.8785 22.7017 16.9957 22.7017C17.2344 22.7017 17.4688 22.5758 17.599 22.3501L19.1875 19.5723C19.3741 19.2381 19.2613 18.8171 18.9271 18.6261ZM14.7604 18.6261C14.4306 18.4395 14.0052 18.548 13.8143 18.8865L12.2257 21.6643C12.0347 21.9985 12.1519 22.4195 12.4861 22.6105C12.5946 22.6713 12.7118 22.7017 12.829 22.7017C13.0677 22.7017 13.3021 22.5758 13.4323 22.3501L15.0208 19.5723C15.2075 19.2381 15.0946 18.8171 14.7604 18.6261ZM10.5938 18.6261C10.2639 18.4395 9.83856 18.548 9.64759 18.8865L8.05904 21.6643C7.86807 21.9985 7.98526 22.4195 8.31946 22.6105C8.42797 22.6713 8.54516 22.7017 8.66234 22.7017C8.90106 22.7017 9.13543 22.5758 9.26564 22.3501L10.8542 19.5723C11.0408 19.2381 10.928 18.8171 10.5938 18.6261Z" fill="black"/>
</svg>
