<svg width="490" height="484" viewBox="0 0 490 484" fill="none" xmlns="http://www.w3.org/2000/svg">
<path d="M250 483.41C382.228 483.41 489.42 427.011 489.42 357.44C489.42 287.869 382.228 231.47 250 231.47C117.772 231.47 10.58 287.869 10.58 357.44C10.58 427.011 117.772 483.41 250 483.41Z" fill="#F0F0F0"/>
<path d="M366.74 423.94C405.798 423.94 437.46 405.66 437.46 383.11C437.46 360.56 405.798 342.28 366.74 342.28C327.682 342.28 296.02 360.56 296.02 383.11C296.02 405.66 327.682 423.94 366.74 423.94Z" fill="#E0E0E0"/>
<path d="M42 388.37L46 390.7C46.7135 391.065 47.5035 391.255 48.305 391.255C49.1065 391.255 49.8965 391.065 50.61 390.7L292.58 251C293.85 250.26 293.85 249.07 292.58 248.34L288.58 246C287.863 245.64 287.072 245.453 286.27 245.453C285.468 245.453 284.677 245.64 283.96 246L42 385.71C41.7199 385.802 41.476 385.98 41.3031 386.219C41.1302 386.458 41.0372 386.745 41.0372 387.04C41.0372 387.335 41.1302 387.622 41.3031 387.861C41.476 388.1 41.7199 388.278 42 388.37Z" fill="#E0E0E0"/>
<path d="M398.29 347.2C398.29 347.2 398.44 329.58 403.73 315.35C409.02 301.12 418.32 290.93 428.41 287.88C438.5 284.83 449.19 295.22 439.61 304.1C430.03 312.98 412 323.83 408.26 350L398.29 347.2Z" fill="#214E34"/>
<path opacity="0.15" d="M398.29 347.2C398.29 347.2 398.44 329.58 403.73 315.35C409.02 301.12 418.32 290.93 428.41 287.88C438.5 284.83 449.19 295.22 439.61 304.1C430.03 312.98 412 323.83 408.26 350L398.29 347.2Z" fill="black"/>
<path d="M402.48 344.53C402.441 344.54 402.399 344.54 402.36 344.53C402.207 344.508 402.068 344.426 401.975 344.302C401.881 344.179 401.84 344.024 401.86 343.87C406.03 313.44 424.41 296.5 433.54 291.79C433.666 291.762 433.797 291.775 433.914 291.828C434.032 291.882 434.128 291.972 434.189 292.085C434.251 292.198 434.273 292.329 434.253 292.456C434.234 292.583 434.173 292.701 434.08 292.79C425.13 297.4 407.08 314.04 403.02 343.99C403.011 344.13 402.951 344.262 402.851 344.361C402.752 344.461 402.62 344.521 402.48 344.53Z" fill="white"/>
<path d="M397.46 364.09C397.697 361.697 397.514 359.28 396.92 356.95C396.34 354.46 394.84 352.08 394.72 349.49C394.761 348.388 395.019 347.305 395.479 346.303C395.939 345.301 396.591 344.4 397.4 343.65C398.92 342.2 400.93 341.19 401.96 339.35C402.99 337.51 402.78 335.17 403.28 333.07C403.825 330.744 405.257 328.723 407.271 327.437C409.285 326.152 411.721 325.705 414.06 326.19C416.23 326.64 418.16 327.85 420.15 328.83C422.123 329.932 424.398 330.374 426.64 330.09C429.085 329.63 431.563 329.369 434.05 329.31C438.28 329.31 443.61 330.75 445.05 335.23C445.455 336.328 445.494 337.528 445.16 338.65L445.11 338.79C443.88 341.79 440.02 342.44 437.53 343.93C436.85 344.33 435.72 344.93 435.46 345.74C435.2 346.55 435.91 347.68 436.26 348.45C437.17 350.45 438.47 352.29 438.59 354.51C438.76 357.68 436.11 360.74 433.44 362.09C430.815 363.276 427.931 363.774 425.06 363.54C423.63 363.48 422.06 363.36 420.91 364.18C420.43 364.571 420.036 365.057 419.754 365.608C419.472 366.159 419.307 366.762 419.27 367.38C419.11 368.61 419.27 369.86 419.11 371.09C418.87 373.04 418.109 374.889 416.907 376.443C415.705 377.997 414.107 379.198 412.28 379.92C409.226 381.08 405.846 381.04 402.82 379.81C401.524 379.179 400.391 378.258 399.509 377.119C398.626 375.98 398.017 374.652 397.73 373.24C397.221 370.217 397.13 367.138 397.46 364.09Z" fill="#214E34"/>
<path d="M398.48 371.34C398.357 371.323 398.245 371.257 398.17 371.158C398.095 371.058 398.063 370.933 398.08 370.81C402.18 341.54 431.55 333.81 438.6 333.46C438.662 333.457 438.723 333.467 438.781 333.488C438.839 333.509 438.893 333.542 438.938 333.583C438.984 333.625 439.021 333.676 439.047 333.732C439.073 333.788 439.087 333.848 439.09 333.91C439.094 333.971 439.086 334.033 439.066 334.091C439.046 334.149 439.014 334.202 438.973 334.248C438.932 334.293 438.883 334.33 438.827 334.357C438.772 334.383 438.711 334.397 438.65 334.4C431.75 334.74 403.03 342.31 399.01 370.94C398.993 371.063 398.927 371.175 398.828 371.25C398.728 371.325 398.603 371.357 398.48 371.34Z" fill="white"/>
<path d="M429.91 352.93C429.816 352.921 429.726 352.886 429.65 352.83C426.603 350.779 423.142 349.424 419.512 348.863C415.883 348.301 412.174 348.546 408.65 349.58C408.529 349.611 408.401 349.594 408.293 349.532C408.185 349.471 408.105 349.369 408.07 349.25C408.053 349.19 408.049 349.128 408.056 349.066C408.064 349.005 408.084 348.945 408.114 348.891C408.145 348.837 408.186 348.79 408.235 348.752C408.284 348.714 408.34 348.686 408.4 348.67C412.071 347.597 415.933 347.347 419.712 347.939C423.49 348.53 427.092 349.947 430.26 352.09C430.357 352.168 430.418 352.282 430.431 352.406C430.445 352.529 430.408 352.653 430.33 352.75C430.28 352.812 430.215 352.861 430.142 352.892C430.069 352.923 429.989 352.936 429.91 352.93Z" fill="white"/>
<path d="M93.93 77.67L90.49 79.67V70.44C90.49 60.89 85.49 57.44 79.25 60.94C75.6686 63.0063 72.6677 65.9444 70.526 69.4812C68.3843 73.018 67.1714 77.0388 67 81.17L66.91 82.93C65.59 81.93 63.81 81.81 61.8 82.93C54.8 86.58 53.35 93.13 52.99 100.03V100.82L47.21 104.16C44.21 105.83 41.64 110.79 41.41 115.34C41.18 119.89 43.41 122.53 46.41 120.86L93.15 93.86C96.15 92.19 98.72 87.47 98.96 82.93C99.2 78.39 96.9 76 93.93 77.67Z" fill="#EBEBEB"/>
<path d="M149.15 91.32L142.53 95.14C142.58 94.75 142.62 94.28 142.64 93.9L142.77 91.36C143 86.83 140.77 84.52 137.84 86.19C136.485 87.0436 135.362 88.2183 134.57 89.61C134.39 83.82 131.27 81.03 127.18 83.33C122.75 85.82 118.89 93.33 118.54 100.09V103.79C118.519 105.34 118.596 106.89 118.77 108.43L113.27 111.6C111.63 112.53 110.2 115.23 110.07 117.74C109.94 120.25 111.16 121.74 112.8 120.86L148.68 100.15C149.638 99.4621 150.424 98.5633 150.979 97.5229C151.534 96.4825 151.842 95.3285 151.88 94.15C152 91.68 150.79 90.39 149.15 91.32Z" fill="#EBEBEB"/>
<path opacity="0.9" d="M36.66 195.29V349.29C36.6532 350.405 36.8922 351.508 37.36 352.52C37.5644 352.975 37.8414 353.394 38.18 353.76C38.4643 354.096 38.8021 354.384 39.18 354.61C39.29 354.68 46.78 358.98 47 359.12C46.7051 358.956 46.4328 358.754 46.19 358.52C45.7379 358.086 45.3715 357.57 45.11 357C44.7199 356.015 44.5034 354.969 44.47 353.91V199.73C44.5393 197.764 45.0812 195.843 46.05 194.13L38.26 189.63C37.2815 191.362 36.7328 193.302 36.66 195.29Z" fill="#214E34"/>
<path opacity="0.9" d="M36.66 195.29V349.29C36.6532 350.405 36.8922 351.508 37.36 352.52C37.5644 352.975 37.8414 353.394 38.18 353.76C38.4643 354.096 38.8021 354.384 39.18 354.61C39.29 354.68 46.78 358.98 47 359.12C46.7051 358.956 46.4328 358.754 46.19 358.52C45.7379 358.086 45.3715 357.57 45.11 357C44.7199 356.015 44.5034 354.969 44.47 353.91V199.73C44.5393 197.764 45.0812 195.843 46.05 194.13L38.26 189.63C37.2815 191.362 36.7328 193.302 36.66 195.29Z" fill="#214E34"/>
<path d="M295.2 55.07V210.69C295.087 212.815 294.472 214.883 293.407 216.726C292.342 218.568 290.855 220.132 289.07 221.29L50.59 359C49.988 359.371 49.2968 359.571 48.59 359.58C48.3238 359.576 48.0588 359.543 47.8 359.48C47.62 359.441 47.4454 359.381 47.28 359.3L46.96 359.12L46.6 358.88C46.4776 358.791 46.3637 358.69 46.26 358.58C45.773 358.137 45.3817 357.6 45.11 357C44.6851 356.025 44.4671 354.973 44.47 353.91V199.73C44.5884 197.607 45.204 195.542 46.267 193.701C47.33 191.86 48.8108 190.294 50.59 189.13L289.07 51.54C289.661 51.1224 290.346 50.8558 291.064 50.7635C291.782 50.6711 292.512 50.7557 293.19 51.01C293.376 51.0901 293.551 51.1943 293.71 51.32C293.863 51.4326 293.997 51.5674 294.11 51.72C294.18 51.7844 294.241 51.8585 294.29 51.94C294.375 52.034 294.443 52.1423 294.49 52.26C294.653 52.4992 294.778 52.7624 294.86 53.04C294.93 53.2131 294.977 53.3946 295 53.58C295.01 53.5985 295.015 53.6191 295.015 53.64C295.015 53.6609 295.01 53.6815 295 53.7C295.054 53.8859 295.087 54.077 295.1 54.27C295.18 54.55 295.2 54.81 295.2 55.07Z" fill="#214E34"/>
<g opacity="0.7">
<path d="M295.2 55.07V210.69C295.087 212.815 294.472 214.883 293.407 216.726C292.342 218.568 290.855 220.132 289.07 221.29L50.59 359C49.988 359.371 49.2968 359.571 48.59 359.58C48.3238 359.576 48.0588 359.543 47.8 359.48C47.62 359.441 47.4454 359.381 47.28 359.3L46.96 359.12L46.6 358.88C46.4776 358.791 46.3637 358.69 46.26 358.58C45.773 358.137 45.3817 357.6 45.11 357C44.6851 356.025 44.4671 354.973 44.47 353.91V199.73C44.5884 197.607 45.204 195.542 46.267 193.701C47.33 191.86 48.8108 190.294 50.59 189.13L289.07 51.54C289.661 51.1224 290.346 50.8558 291.064 50.7635C291.782 50.6711 292.512 50.7557 293.19 51.01C293.376 51.0901 293.551 51.1943 293.71 51.32C293.863 51.4326 293.997 51.5674 294.11 51.72C294.18 51.7844 294.241 51.8585 294.29 51.94C294.375 52.034 294.443 52.1423 294.49 52.26C294.653 52.4992 294.778 52.7624 294.86 53.04C294.93 53.2131 294.977 53.3946 295 53.58C295.01 53.5985 295.015 53.6191 295.015 53.64C295.015 53.6609 295.01 53.6815 295 53.7C295.054 53.8859 295.087 54.077 295.1 54.27C295.18 54.55 295.2 54.81 295.2 55.07Z" fill="white"/>
</g>
<path d="M285.7 46.76C284.57 46.07 283.01 46.09 281.26 47.12L42.76 184.71C42.3118 184.978 41.884 185.279 41.48 185.61L41.29 185.79C40.9392 186.105 40.6054 186.439 40.29 186.79L40.21 186.89C39.4596 187.733 38.8086 188.659 38.27 189.65L46.06 194.15C46.5972 193.145 47.2481 192.206 48 191.35C48.0279 191.309 48.0616 191.272 48.1 191.24C48.413 190.887 48.7469 190.553 49.1 190.24C49.17 190.18 49.23 190.11 49.31 190.05C49.7122 189.714 50.1401 189.409 50.59 189.14L289.07 51.54C289.661 51.1224 290.346 50.8558 291.064 50.7635C291.782 50.6711 292.512 50.7557 293.19 51.01C291.88 50.33 286.8 47.42 285.7 46.76Z" fill="#214E34"/>
<g opacity="0.8">
<path d="M285.7 46.76C284.57 46.07 283.01 46.09 281.26 47.12L42.76 184.71C42.3118 184.978 41.884 185.279 41.48 185.61L41.29 185.79C40.9392 186.105 40.6054 186.439 40.29 186.79L40.21 186.89C39.4596 187.733 38.8086 188.659 38.27 189.65L46.06 194.15C46.5972 193.145 47.2481 192.206 48 191.35C48.0279 191.309 48.0616 191.272 48.1 191.24C48.413 190.887 48.7469 190.553 49.1 190.24C49.17 190.18 49.23 190.11 49.31 190.05C49.7122 189.714 50.1401 189.409 50.59 189.14L289.07 51.54C289.661 51.1224 290.346 50.8558 291.064 50.7635C291.782 50.6711 292.512 50.7557 293.19 51.01C291.88 50.33 286.8 47.42 285.7 46.76Z" fill="white"/>
</g>
<path d="M59.63 195C59.1999 194.799 58.7239 194.716 58.2511 194.76C57.7782 194.804 57.3256 194.973 56.94 195.25C55.2309 196.387 53.972 198.084 53.38 200.05C53.1382 200.689 53.0161 201.367 53.02 202.05V202.66C53.02 204.73 55.33 207.52 56.41 208.51C56.4296 208.538 56.4576 208.559 56.49 208.57C56.5526 208.61 56.623 208.637 56.6966 208.648C56.7701 208.659 56.8451 208.654 56.9168 208.634C56.9885 208.615 57.0552 208.58 57.1126 208.533C57.17 208.485 57.2168 208.427 57.25 208.36C58.18 206.45 60.89 200.7 60.89 198.48V197.87C60.9539 197.323 60.8709 196.768 60.6495 196.264C60.428 195.76 60.0761 195.323 59.63 195ZM55.41 201.61V201.49C55.3993 201.367 55.3993 201.243 55.41 201.12C55.4395 200.5 55.613 199.895 55.9168 199.353C56.2205 198.812 56.6462 198.349 57.16 198C57.2638 197.935 57.3744 197.881 57.49 197.84C57.5773 197.807 57.6678 197.784 57.76 197.77C58.47 197.65 58.97 198.13 58.97 199.04C58.9368 199.669 58.7556 200.281 58.441 200.827C58.1265 201.372 57.6876 201.836 57.16 202.18C56.32 202.69 55.61 202.43 55.41 201.64V201.61Z" fill="#011638"/>
<path opacity="0.8" d="M64.79 195.66C64.79 196.66 65.57 197.1 66.54 196.54L82.73 187.19C83.2304 186.88 83.65 186.455 83.9542 185.951C84.2584 185.447 84.4387 184.877 84.48 184.29C84.48 183.29 83.7 182.85 82.73 183.4L66.54 192.75C66.0399 193.063 65.6208 193.49 65.3168 193.996C65.0127 194.501 64.8322 195.071 64.79 195.66Z" fill="#214E34"/>
<path opacity="0.2" d="M64.79 195.66C64.79 196.66 65.57 197.1 66.54 196.54L82.73 187.19C83.2304 186.88 83.65 186.455 83.9542 185.951C84.2584 185.447 84.4387 184.877 84.48 184.29C84.48 183.29 83.7 182.85 82.73 183.4L66.54 192.75C66.0399 193.063 65.6208 193.49 65.3168 193.996C65.0127 194.501 64.8322 195.071 64.79 195.66Z" fill="black"/>
<path d="M65.84 200.13L78.2 192.93C78.78 192.6 79.2 192.83 79.2 193.46C79.1809 193.808 79.0805 194.147 78.9068 194.449C78.7331 194.751 78.4911 195.008 78.2 195.2L65.84 202.4C65.26 202.74 64.84 202.5 64.84 201.87C64.8591 201.522 64.9595 201.183 65.1332 200.881C65.3069 200.579 65.5489 200.322 65.84 200.13Z" fill="#214E34"/>
<path d="M136.05 245.1L133.6 246.47V240.64C133.6 236.35 130.17 235.33 126.45 237.49C124.493 238.778 122.866 240.506 121.697 242.536C120.528 244.566 119.851 246.841 119.72 249.18V250C119.195 249.841 118.641 249.802 118.099 249.887C117.557 249.971 117.041 250.178 116.59 250.49C115.182 251.416 114.011 252.659 113.17 254.12C112.33 255.58 111.843 257.217 111.75 258.9V259.26L108.32 261.26C107.393 261.87 106.621 262.689 106.067 263.651C105.513 264.613 105.192 265.692 105.13 266.8C105.13 268.8 106.56 269.66 108.32 268.63L136.05 252.51C136.982 251.904 137.757 251.086 138.314 250.123C138.87 249.161 139.19 248.08 139.25 246.97C139.25 244.9 137.82 244.08 136.05 245.1Z" fill="#FAFAFA"/>
<path d="M121.57 240.33C119.784 242.742 118.741 245.623 118.57 248.62C117.611 248.619 116.672 248.889 115.86 249.4C114.003 250.571 112.535 252.265 111.64 254.27C109.76 254.01 108.52 252.34 108.52 249.61C108.65 247.32 109.319 245.092 110.473 243.109C111.626 241.126 113.233 239.444 115.16 238.2C118.31 236.39 120.92 237.37 121.57 240.33Z" fill="#FFBDA7"/>
<path d="M59.0252 246.845V241.892L69.017 225.334C69.8668 223.885 70.5795 222.611 71.1552 221.512C71.74 220.408 72.1832 219.403 72.4847 218.496C72.7862 217.579 72.937 216.692 72.937 215.834C72.937 214.882 72.7497 214.171 72.3751 213.702C72.0004 213.222 71.4887 212.987 70.84 212.996C70.1912 212.994 69.4556 213.234 68.6333 213.714C67.7743 214.216 67.0251 214.856 66.3855 215.632C65.7458 216.408 65.2524 217.273 64.9052 218.228C64.558 219.182 64.3843 220.178 64.3843 221.215L58.7511 224.509C58.7511 222.381 59.1669 220.291 59.9984 218.239C60.8299 216.186 61.9949 214.293 63.4934 212.56C64.992 210.826 66.719 209.388 68.6744 208.245C70.6846 207.069 72.4345 206.459 73.9239 206.414C75.4224 206.353 76.5874 206.804 77.4189 207.768C78.2504 208.732 78.6662 210.151 78.6662 212.024C78.6662 213.252 78.456 214.587 78.0357 216.029C77.6245 217.465 76.889 219.224 75.829 221.304C74.7691 223.374 73.2751 225.988 71.3471 229.147L67.2489 236.195V236.417L79.0363 229.526V235.147L59.0252 246.845ZM82.3086 227.518V222.104L94.0274 193.867L98.057 191.512V199.005L95.6722 200.4L88.2845 218.261V218.515L104.938 208.78V214.289L82.3086 227.518ZM95.7818 225.357V217.99L95.8915 215.529V192.778L101.456 189.524V222.04L95.7818 225.357ZM115.484 196.708C114.242 197.434 113.109 197.747 112.085 197.647C111.071 197.531 110.262 197.062 109.659 196.239C109.056 195.406 108.755 194.27 108.755 192.831C108.755 191.402 109.056 189.924 109.659 188.396C110.262 186.858 111.071 185.443 112.085 184.152C113.109 182.845 114.242 181.828 115.484 181.101C116.727 180.375 117.856 180.069 118.87 180.186C119.893 180.286 120.707 180.752 121.31 181.585C121.913 182.408 122.214 183.533 122.214 184.962C122.214 186.402 121.913 187.89 121.31 189.428C120.707 190.956 119.893 192.373 118.87 193.681C117.856 194.972 116.727 195.981 115.484 196.708ZM115.484 192.199C116.014 191.889 116.494 191.46 116.924 190.913C117.353 190.365 117.691 189.771 117.938 189.129C118.194 188.482 118.322 187.852 118.322 187.238C118.322 186.634 118.194 186.159 117.938 185.811C117.691 185.458 117.353 185.258 116.924 185.213C116.494 185.168 116.014 185.3 115.484 185.61C114.964 185.914 114.488 186.34 114.059 186.888C113.63 187.435 113.287 188.033 113.031 188.68C112.775 189.327 112.647 189.952 112.647 190.555C112.647 191.169 112.775 191.65 113.031 191.998C113.287 192.346 113.63 192.542 114.059 192.588C114.488 192.633 114.964 192.503 115.484 192.199ZM150.86 172.026L144.857 175.535C144.747 174.7 144.523 174.031 144.185 173.531C143.847 173.019 143.413 172.669 142.883 172.482C142.353 172.294 141.741 172.271 141.047 172.412C140.361 172.548 139.617 172.852 138.812 173.322C137.36 174.171 136.094 175.329 135.016 176.795C133.938 178.251 133.101 179.947 132.508 181.882C131.914 183.806 131.617 185.895 131.617 188.15C131.617 190.468 131.914 192.242 132.508 193.472C133.111 194.696 133.951 195.395 135.029 195.569C136.108 195.743 137.355 195.417 138.771 194.589C139.566 194.124 140.302 193.572 140.978 192.933C141.663 192.289 142.271 191.579 142.801 190.804C143.331 190.018 143.769 189.184 144.117 188.304C144.473 187.418 144.72 186.501 144.857 185.553L150.86 182.076C150.705 183.659 150.316 185.325 149.695 187.075C149.083 188.809 148.256 190.525 147.214 192.225C146.182 193.908 144.948 195.486 143.514 196.96C142.088 198.418 140.475 199.673 138.675 200.725C136.172 202.189 133.933 202.842 131.959 202.683C129.995 202.519 128.441 201.527 127.299 199.708C126.166 197.883 125.6 195.203 125.6 191.667C125.6 188.122 126.175 184.769 127.327 181.608C128.478 178.448 130.04 175.64 132.014 173.184C133.988 170.718 136.208 168.763 138.675 167.321C140.302 166.37 141.809 165.753 143.198 165.471C144.596 165.183 145.835 165.231 146.913 165.617C147.991 165.992 148.868 166.713 149.544 167.778C150.23 168.838 150.668 170.254 150.86 172.026Z" fill="#011638"/>
<path d="M53 268.22C52.8835 268.217 52.771 268.177 52.6793 268.105C52.5876 268.033 52.5216 267.933 52.4913 267.821C52.4609 267.708 52.4677 267.589 52.5107 267.481C52.5538 267.372 52.6307 267.281 52.73 267.22L143.57 214.78C143.63 214.745 143.697 214.722 143.766 214.713C143.835 214.704 143.905 214.709 143.972 214.727C144.04 214.746 144.102 214.778 144.157 214.821C144.211 214.865 144.257 214.919 144.29 214.98C144.326 215.04 144.349 215.106 144.359 215.174C144.369 215.243 144.365 215.313 144.347 215.38C144.329 215.447 144.298 215.51 144.256 215.565C144.213 215.62 144.16 215.666 144.1 215.7L53.24 268.15C53.1676 268.194 53.0848 268.218 53 268.22Z" fill="#214E34"/>
<path d="M79.3562 265.961V265.142L81.0082 262.405C81.1487 262.165 81.2665 261.954 81.3617 261.773C81.4584 261.59 81.5317 261.424 81.5815 261.274C81.6314 261.122 81.6563 260.976 81.6563 260.834C81.6563 260.677 81.6253 260.559 81.5634 260.481C81.5014 260.402 81.4168 260.363 81.3096 260.365C81.2023 260.364 81.0807 260.404 80.9447 260.484C80.8027 260.567 80.6788 260.672 80.5731 260.801C80.4673 260.929 80.3858 261.072 80.3283 261.23C80.2709 261.388 80.2422 261.552 80.2422 261.724L79.3109 262.268C79.3109 261.916 79.3796 261.571 79.5171 261.232C79.6546 260.892 79.8472 260.579 80.0949 260.293C80.3427 260.006 80.6282 259.768 80.9515 259.579C81.2839 259.385 81.5732 259.284 81.8195 259.277C82.0672 259.266 82.2598 259.341 82.3973 259.5C82.5348 259.66 82.6035 259.894 82.6035 260.204C82.6035 260.407 82.5688 260.628 82.4993 260.866C82.4313 261.104 82.3097 261.394 82.1344 261.738C81.9592 262.081 81.7122 262.513 81.3934 263.035L80.7159 264.2V264.237L82.6647 263.098V264.027L79.3562 265.961ZM83.5593 263.504L85.4832 257.969V257.933L83.242 259.243V258.314L86.4984 256.41V257.352L84.5722 262.912L83.5593 263.504ZM88.2609 257.923C88.0554 258.043 87.8681 258.095 87.6989 258.078C87.5312 258.059 87.3975 257.982 87.2978 257.846C87.1981 257.708 87.1482 257.52 87.1482 257.282C87.1482 257.046 87.1981 256.801 87.2978 256.549C87.3975 256.295 87.5312 256.061 87.6989 255.847C87.8681 255.631 88.0554 255.463 88.2609 255.343C88.4664 255.223 88.653 255.172 88.8206 255.191C88.9898 255.208 89.1243 255.285 89.224 255.423C89.3237 255.559 89.3736 255.745 89.3736 255.981C89.3736 256.219 89.3237 256.465 89.224 256.72C89.1243 256.972 88.9898 257.206 88.8206 257.423C88.653 257.636 88.4664 257.803 88.2609 257.923ZM88.2609 257.178C88.3485 257.126 88.4278 257.056 88.4989 256.965C88.5699 256.874 88.6258 256.776 88.6665 256.67C88.7088 256.563 88.73 256.459 88.73 256.357C88.73 256.258 88.7088 256.179 88.6665 256.121C88.6258 256.063 88.5699 256.03 88.4989 256.023C88.4278 256.015 88.3485 256.037 88.2609 256.088C88.1748 256.139 88.0962 256.209 88.0252 256.3C87.9542 256.39 87.8976 256.489 87.8553 256.596C87.813 256.703 87.7918 256.806 87.7918 256.906C87.7918 257.007 87.813 257.087 87.8553 257.144C87.8976 257.202 87.9542 257.234 88.0252 257.242C88.0962 257.249 88.1748 257.228 88.2609 257.178ZM94.1098 253.842L93.1172 254.423C93.0991 254.284 93.0621 254.174 93.0062 254.091C92.9503 254.007 92.8785 253.949 92.7909 253.918C92.7033 253.887 92.602 253.883 92.4872 253.906C92.3739 253.929 92.2508 253.979 92.1179 254.057C91.8776 254.197 91.6684 254.388 91.4901 254.631C91.3119 254.872 91.1736 255.152 91.0754 255.472C90.9772 255.79 90.9281 256.135 90.9281 256.508C90.9281 256.891 90.9772 257.185 91.0754 257.388C91.1751 257.59 91.3141 257.706 91.4924 257.735C91.6707 257.764 91.8769 257.71 92.1111 257.573C92.2425 257.496 92.3641 257.405 92.4759 257.299C92.5892 257.193 92.6897 257.075 92.7773 256.947C92.8649 256.817 92.9374 256.679 92.9948 256.534C93.0538 256.387 93.0946 256.236 93.1172 256.079L94.1098 255.504C94.0841 255.766 94.0199 256.041 93.9172 256.33C93.8159 256.617 93.6792 256.901 93.507 257.182C93.3363 257.46 93.1323 257.721 92.8951 257.965C92.6595 258.206 92.3928 258.413 92.0952 258.587C91.6812 258.829 91.3111 258.937 90.9848 258.911C90.66 258.884 90.4032 258.72 90.2143 258.419C90.027 258.117 89.9333 257.674 89.9333 257.09C89.9333 256.504 90.0285 255.949 90.2188 255.427C90.4092 254.904 90.6675 254.44 90.9939 254.034C91.3202 253.626 91.6873 253.303 92.0952 253.064C92.3641 252.907 92.6134 252.805 92.843 252.758C93.0742 252.711 93.2789 252.719 93.4571 252.783C93.6354 252.845 93.7804 252.964 93.8922 253.14C94.0055 253.315 94.078 253.549 94.1098 253.842Z" fill="#011638"/>
<path d="M81.3753 274.385V279.761L80.3941 280.335V276.037L80.3669 276.053L79.3041 277.446V276.438L80.453 274.924L81.3753 274.385ZM84.4974 272.56V277.936L83.5162 278.509V274.212L83.489 274.228L82.4262 275.621V274.613L83.5751 273.099L84.4974 272.56ZM86.6905 273.821C86.485 273.941 86.2977 273.993 86.1285 273.976C85.9608 273.957 85.8271 273.88 85.7274 273.744C85.6277 273.606 85.5778 273.418 85.5778 273.18C85.5778 272.944 85.6277 272.7 85.7274 272.447C85.8271 272.193 85.9608 271.959 86.1285 271.745C86.2977 271.529 86.485 271.361 86.6905 271.241C86.8959 271.121 87.0825 271.07 87.2502 271.089C87.4194 271.106 87.5539 271.183 87.6536 271.321C87.7533 271.457 87.8032 271.643 87.8032 271.879C87.8032 272.117 87.7533 272.363 87.6536 272.618C87.5539 272.87 87.4194 273.105 87.2502 273.321C87.0825 273.534 86.8959 273.701 86.6905 273.821ZM86.6905 273.076C86.7781 273.024 86.8574 272.954 86.9284 272.863C86.9994 272.773 87.0553 272.674 87.0961 272.568C87.1384 272.461 87.1596 272.357 87.1596 272.255C87.1596 272.156 87.1384 272.077 87.0961 272.02C87.0553 271.961 86.9994 271.928 86.9284 271.921C86.8574 271.913 86.7781 271.935 86.6905 271.986C86.6044 272.037 86.5258 272.107 86.4548 272.198C86.3838 272.288 86.3272 272.387 86.2849 272.494C86.2426 272.601 86.2214 272.704 86.2214 272.804C86.2214 272.905 86.2426 272.985 86.2849 273.042C86.3272 273.1 86.3838 273.132 86.4548 273.14C86.5258 273.147 86.6044 273.126 86.6905 273.076ZM92.5394 269.74L91.5468 270.321C91.5287 270.182 91.4916 270.072 91.4357 269.989C91.3799 269.905 91.3081 269.847 91.2205 269.816C91.1328 269.785 91.0316 269.781 90.9168 269.804C90.8035 269.827 90.6804 269.877 90.5474 269.955C90.3072 270.095 90.098 270.287 89.9197 270.529C89.7414 270.77 89.6032 271.05 89.505 271.37C89.4068 271.688 89.3577 272.034 89.3577 272.406C89.3577 272.79 89.4068 273.083 89.505 273.286C89.6047 273.489 89.7437 273.604 89.922 273.633C90.1002 273.662 90.3065 273.608 90.5406 273.471C90.6721 273.394 90.7937 273.303 90.9055 273.197C91.0188 273.091 91.1192 272.973 91.2069 272.845C91.2945 272.715 91.367 272.577 91.4244 272.432C91.4833 272.285 91.5241 272.134 91.5468 271.977L92.5394 271.402C92.5137 271.664 92.4495 271.939 92.3467 272.229C92.2455 272.515 92.1088 272.799 91.9366 273.08C91.7658 273.358 91.5619 273.619 91.3247 273.863C91.089 274.104 90.8224 274.311 90.5248 274.485C90.1108 274.727 89.7407 274.835 89.4144 274.809C89.0896 274.782 88.8327 274.618 88.6439 274.317C88.4566 274.015 88.3629 273.572 88.3629 272.988C88.3629 272.402 88.4581 271.847 88.6484 271.325C88.8388 270.802 89.0971 270.338 89.4234 269.932C89.7498 269.524 90.1169 269.201 90.5248 268.963C90.7937 268.805 91.043 268.703 91.2726 268.657C91.5037 268.609 91.7084 268.617 91.8867 268.681C92.065 268.743 92.21 268.862 92.3218 269.038C92.4351 269.213 92.5076 269.447 92.5394 269.74Z" fill="#011638"/>
<path d="M81.0262 299.04L83.1097 293.046V293.006L80.6826 294.425V293.419L84.2091 291.357V292.378L82.1232 298.399L81.0262 299.04ZM86.7056 295.799C86.3587 296.002 86.0495 296.109 85.7779 296.12C85.508 296.13 85.2937 296.052 85.135 295.885C84.9763 295.718 84.8936 295.469 84.8871 295.137L85.9178 294.534C85.9293 294.753 86.0111 294.888 86.1632 294.94C86.3154 294.991 86.4962 294.955 86.7056 294.833C86.8725 294.735 87.0197 294.607 87.1473 294.447C87.2766 294.284 87.3772 294.105 87.4492 293.909C87.5228 293.711 87.5596 293.511 87.5596 293.31C87.5596 293.106 87.522 292.948 87.4467 292.836C87.3731 292.724 87.2709 292.662 87.14 292.652C87.0091 292.641 86.8594 292.684 86.6909 292.781C86.5436 292.867 86.4005 292.985 86.2614 293.137C86.124 293.287 86.0168 293.446 85.9399 293.612L84.9951 293.968L85.2331 290.759L88.3057 288.963V289.969L86.1092 291.253L85.9792 292.787L86.0086 292.77C86.097 292.574 86.2303 292.377 86.4086 292.178C86.587 291.979 86.7866 291.815 87.0074 291.686C87.3101 291.509 87.5801 291.433 87.8173 291.46C88.0545 291.486 88.2419 291.603 88.3793 291.811C88.5167 292.016 88.5846 292.306 88.583 292.681C88.5846 293.072 88.5061 293.467 88.3474 293.865C88.1903 294.26 87.9703 294.627 87.6872 294.967C87.4058 295.304 87.0786 295.581 86.7056 295.799ZM92.0752 291.489V291.182C92.0752 290.949 92.1177 290.71 92.2028 290.465C92.2895 290.217 92.4147 289.987 92.5783 289.774C92.7435 289.558 92.9448 289.38 93.182 289.242C93.4225 289.101 93.6246 289.042 93.7882 289.063C93.9534 289.084 94.0777 289.169 94.1612 289.317C94.2463 289.463 94.2888 289.653 94.2888 289.888V290.195C94.2888 290.428 94.2463 290.668 94.1612 290.915C94.0761 291.16 93.951 291.389 93.7857 291.603C93.6205 291.819 93.4192 291.997 93.182 292.135C92.9415 292.276 92.7394 292.335 92.5758 292.311C92.4122 292.289 92.2879 292.205 92.2028 292.06C92.1177 291.912 92.0752 291.722 92.0752 291.489ZM92.7893 290.765V291.072C92.7893 291.206 92.8172 291.317 92.8728 291.404C92.93 291.49 93.0331 291.489 93.182 291.402C93.3309 291.315 93.4323 291.197 93.4863 291.048C93.5419 290.898 93.5697 290.754 93.5697 290.615V290.308C93.5697 290.17 93.5436 290.056 93.4912 289.968C93.4389 289.879 93.3358 289.879 93.182 289.969C93.0347 290.055 92.9325 290.175 92.8752 290.328C92.818 290.481 92.7893 290.626 92.7893 290.765ZM89.4959 289.665V289.358C89.4959 289.123 89.5393 288.883 89.626 288.637C89.7127 288.389 89.8379 288.159 90.0015 287.946C90.1667 287.731 90.3663 287.556 90.6003 287.419C90.8424 287.278 91.0453 287.218 91.2089 287.24C91.3725 287.262 91.4968 287.346 91.5819 287.493C91.667 287.639 91.7095 287.829 91.7095 288.064V288.371C91.7095 288.606 91.6662 288.847 91.5795 289.093C91.4944 289.337 91.3692 289.567 91.204 289.781C91.0404 289.992 90.8391 290.168 90.6003 290.307C90.3614 290.447 90.1593 290.506 89.9941 290.486C89.8305 290.462 89.7062 290.378 89.6211 290.235C89.5376 290.088 89.4959 289.898 89.4959 289.665ZM90.215 288.938V289.245C90.215 289.383 90.2428 289.495 90.2984 289.58C90.3557 289.664 90.4563 289.664 90.6003 289.58C90.7508 289.492 90.853 289.373 90.907 289.224C90.9627 289.074 90.9905 288.93 90.9905 288.792V288.485C90.9905 288.346 90.9643 288.233 90.9119 288.144C90.8596 288.055 90.7557 288.056 90.6003 288.147C90.4547 288.232 90.354 288.352 90.2984 288.505C90.2428 288.659 90.215 288.803 90.215 288.938ZM89.8199 293.899L93.2753 286.057L93.9182 285.681L90.4628 293.523L89.8199 293.899Z" fill="#011638"/>
<path d="M115.054 273.496V279.318L113.991 279.939V275.286L113.962 275.303L112.811 276.812V275.72L114.055 274.08L115.054 273.496ZM118.084 277.626C117.737 277.829 117.428 277.936 117.157 277.947C116.887 277.957 116.672 277.878 116.514 277.711C116.355 277.545 116.272 277.295 116.266 276.964L117.296 276.361C117.308 276.58 117.39 276.715 117.542 276.766C117.694 276.818 117.875 276.782 118.084 276.66C118.251 276.562 118.398 276.433 118.526 276.273C118.655 276.111 118.756 275.931 118.828 275.736C118.901 275.537 118.938 275.338 118.938 275.137C118.938 274.932 118.901 274.774 118.825 274.663C118.752 274.55 118.649 274.489 118.519 274.478C118.388 274.468 118.238 274.511 118.069 274.607C117.922 274.693 117.779 274.812 117.64 274.963C117.503 275.114 117.395 275.272 117.319 275.439L116.374 275.795L116.612 272.585L119.684 270.789V271.795L117.488 273.08L117.358 274.614L117.387 274.597C117.476 274.401 117.609 274.204 117.787 274.005C117.966 273.806 118.165 273.642 118.386 273.512C118.689 273.336 118.959 273.26 119.196 273.286C119.433 273.313 119.62 273.429 119.758 273.637C119.895 273.843 119.963 274.133 119.962 274.507C119.963 274.899 119.885 275.293 119.726 275.691C119.569 276.086 119.349 276.454 119.066 276.794C118.784 277.13 118.457 277.408 118.084 277.626ZM123.259 273.265L123.262 271.811L123.414 271.722L124.621 269.358L125.821 268.657L124.199 271.8L123.951 271.945L123.259 273.265ZM122.312 275.075V269.253L123.357 268.642V274.464L122.312 275.075ZM124.668 273.698L123.559 272.444L124.256 271.181L125.893 272.982L124.668 273.698ZM126.334 272.723V268.357L127.331 267.774V268.545L127.375 268.519C127.453 268.217 127.584 267.939 127.768 267.684C127.951 267.429 128.17 267.227 128.425 267.078C128.684 266.927 128.904 266.873 129.085 266.916C129.267 266.958 129.388 267.088 129.449 267.307L129.488 267.284C129.565 266.989 129.704 266.707 129.905 266.44C130.108 266.17 130.348 265.954 130.624 265.792C130.976 265.587 131.261 265.549 131.481 265.681C131.701 265.81 131.812 266.111 131.812 266.585V269.521L130.769 270.131V267.433C130.769 267.191 130.713 267.041 130.602 266.985C130.491 266.929 130.352 266.949 130.185 267.047C129.995 267.158 129.847 267.314 129.741 267.517C129.634 267.717 129.581 267.931 129.581 268.159V270.825L128.568 271.418V268.694C128.568 268.48 128.514 268.341 128.408 268.276C128.303 268.21 128.165 268.228 127.993 268.328C127.877 268.396 127.772 268.491 127.679 268.614C127.588 268.734 127.515 268.87 127.461 269.023C127.407 269.174 127.38 269.33 127.38 269.491V272.112L126.334 272.723ZM134.827 261.664L133.207 269.581L132.306 270.108L133.926 262.19L134.827 261.664ZM136.376 264.329V266.853L135.33 267.464V261.642L136.346 261.048V263.274L136.391 263.248C136.476 262.941 136.613 262.659 136.803 262.402C136.993 262.143 137.231 261.93 137.517 261.762C137.779 261.609 138.007 261.542 138.202 261.561C138.398 261.577 138.55 261.677 138.658 261.86C138.768 262.04 138.822 262.302 138.82 262.644V265.424L137.775 266.035V263.471C137.776 263.201 137.718 263.026 137.598 262.946C137.48 262.865 137.315 262.887 137.102 263.011C136.96 263.094 136.834 263.203 136.724 263.337C136.616 263.471 136.531 263.623 136.469 263.794C136.409 263.962 136.378 264.14 136.376 264.329Z" fill="#011638"/>
<path d="M62.0834 270.559L63.2935 269.852L64.5716 272.717L64.626 272.685L65.904 268.326L67.1142 267.618V272.994L66.1624 273.551V270.052L66.1239 270.074L64.9228 274.249L64.2747 274.628L63.0737 271.844L63.0351 271.867V275.379L62.0834 275.935V270.559ZM68.7225 272.054L67.6711 272.669L69.2732 266.356L70.5377 265.617L72.1376 270.058L71.0861 270.672L69.9236 267.204L69.8873 267.226L68.7225 272.054ZM68.6568 269.979L71.1405 268.527V269.415L68.6568 270.867V269.979ZM73.6162 263.817L74.5521 265.102L74.5884 265.081L75.5288 262.699L76.637 262.051L75.2206 265.567L76.6687 267.409L75.5402 268.068L74.5884 266.79L74.5521 266.811L73.6004 269.202L72.4764 269.859L73.929 266.322L72.5036 264.468L73.6162 263.817Z" fill="#011638"/>
<path d="M62.0834 285.539L63.2935 284.832L64.5716 287.697L64.626 287.665L65.904 283.306L67.1142 282.598V287.974L66.1624 288.531V285.032L66.1239 285.054L64.9228 289.229L64.2747 289.608L63.0737 286.824L63.0351 286.847V290.359L62.0834 290.915V285.539ZM68.9038 281.552V286.928L67.9226 287.502V282.126L68.9038 281.552ZM73.593 278.811V284.187L72.7455 284.682L70.7264 282.479L70.6924 282.499V285.882L69.7111 286.456V281.08L70.5723 280.577L72.5755 282.787L72.6163 282.763V279.382L73.593 278.811Z" fill="#011638"/>
<path d="M74.37 299.9L73.37 300.46V298.06C73.37 296.29 71.96 295.87 70.37 296.76C69.5639 297.291 68.8935 298.004 68.4124 298.841C67.9314 299.678 67.6531 300.616 67.6 301.58V301.9C67.383 301.836 67.1544 301.822 66.9311 301.858C66.7078 301.895 66.4956 301.981 66.31 302.11C65.7288 302.49 65.2451 303.001 64.8977 303.602C64.5503 304.203 64.349 304.877 64.31 305.57V305.72L62.89 306.54C62.5086 306.791 62.1913 307.128 61.9638 307.524C61.7363 307.92 61.6049 308.364 61.58 308.82C61.58 309.66 62.17 310 62.89 309.58L74.32 302.94C74.7022 302.687 75.0198 302.348 75.2473 301.951C75.4748 301.553 75.6059 301.108 75.63 300.65C75.68 299.82 75.1 299.48 74.37 299.9Z" fill="#214E34"/>
<path d="M65.6 311.77C65.655 311.819 65.7262 311.846 65.8 311.846C65.8738 311.846 65.945 311.819 66 311.77C66.2813 311.561 66.474 311.254 66.54 310.91C66.5802 310.784 66.6004 310.652 66.6 310.52V310.4C66.5359 309.94 66.3571 309.503 66.08 309.13C66.0753 309.119 66.0676 309.11 66.0579 309.104C66.0481 309.097 66.0367 309.094 66.025 309.094C66.0133 309.094 66.0019 309.097 65.9921 309.104C65.9824 309.11 65.9747 309.119 65.97 309.13C65.712 309.732 65.5274 310.364 65.42 311.01V311.14C65.3977 311.365 65.4621 311.591 65.6 311.77Z" fill="#214E34"/>
<path d="M69.15 309.72C69.2083 309.766 69.2806 309.791 69.355 309.791C69.4294 309.791 69.5017 309.766 69.56 309.72C69.8435 309.513 70.0368 309.205 70.1 308.86C70.1363 308.737 70.1531 308.609 70.15 308.48V308.35C70.0826 307.892 69.9079 307.457 69.64 307.08C69.6338 307.07 69.625 307.061 69.6145 307.055C69.604 307.049 69.5921 307.046 69.58 307.046C69.5679 307.046 69.556 307.049 69.5455 307.055C69.535 307.061 69.5262 307.07 69.52 307.08C69.2665 307.696 69.0917 308.341 69 309V309.12C68.9687 309.332 69.0226 309.548 69.15 309.72Z" fill="#214E34"/>
<path d="M72.69 307.67C72.7483 307.716 72.8206 307.741 72.895 307.741C72.9694 307.741 73.0417 307.716 73.1 307.67C73.3761 307.458 73.5647 307.152 73.63 306.81C73.6687 306.684 73.6889 306.552 73.69 306.42V306.3C73.6245 305.839 73.4497 305.4 73.18 305.02C73.18 305.02 73.09 305.02 73.07 305.02C72.8103 305.622 72.6256 306.253 72.52 306.9V307.02C72.5033 307.134 72.5097 307.251 72.5389 307.362C72.5681 307.474 72.6195 307.579 72.69 307.67Z" fill="#214E34"/>
<g opacity="0.1">
<path d="M74.37 299.9L73.37 300.46V298.06C73.37 296.29 71.96 295.87 70.37 296.76C69.5639 297.291 68.8935 298.004 68.4124 298.841C67.9314 299.678 67.6531 300.616 67.6 301.58V301.9C67.383 301.836 67.1544 301.822 66.9311 301.858C66.7078 301.895 66.4956 301.981 66.31 302.11C65.7288 302.49 65.2451 303.001 64.8977 303.602C64.5503 304.203 64.349 304.877 64.31 305.57V305.72L62.89 306.54C62.5086 306.791 62.1913 307.128 61.9638 307.524C61.7363 307.92 61.6049 308.364 61.58 308.82C61.58 309.66 62.17 310 62.89 309.58L74.32 302.94C74.7022 302.687 75.0198 302.348 75.2473 301.951C75.4748 301.553 75.6059 301.108 75.63 300.65C75.68 299.82 75.1 299.48 74.37 299.9Z" fill="black"/>
<path d="M65.6 311.77C65.655 311.819 65.7262 311.846 65.8 311.846C65.8738 311.846 65.945 311.819 66 311.77C66.2813 311.561 66.474 311.254 66.54 310.91C66.5802 310.784 66.6004 310.652 66.6 310.52V310.4C66.5359 309.94 66.3571 309.503 66.08 309.13C66.0753 309.119 66.0676 309.11 66.0579 309.104C66.0481 309.097 66.0367 309.094 66.025 309.094C66.0133 309.094 66.0019 309.097 65.9921 309.104C65.9824 309.11 65.9747 309.119 65.97 309.13C65.712 309.732 65.5274 310.364 65.42 311.01V311.14C65.3977 311.365 65.4621 311.591 65.6 311.77Z" fill="black"/>
<path d="M69.15 309.72C69.2083 309.766 69.2806 309.791 69.355 309.791C69.4294 309.791 69.5017 309.766 69.56 309.72C69.8435 309.513 70.0368 309.205 70.1 308.86C70.1363 308.737 70.1531 308.609 70.15 308.48V308.35C70.0826 307.892 69.9079 307.457 69.64 307.08C69.6338 307.07 69.625 307.061 69.6145 307.055C69.604 307.049 69.5921 307.046 69.58 307.046C69.5679 307.046 69.556 307.049 69.5455 307.055C69.535 307.061 69.5262 307.07 69.52 307.08C69.2665 307.696 69.0917 308.341 69 309V309.12C68.9687 309.332 69.0226 309.548 69.15 309.72Z" fill="black"/>
<path d="M72.69 307.67C72.7483 307.716 72.8206 307.741 72.895 307.741C72.9694 307.741 73.0417 307.716 73.1 307.67C73.3761 307.458 73.5647 307.152 73.63 306.81C73.6687 306.684 73.6889 306.552 73.69 306.42V306.3C73.6245 305.839 73.4497 305.4 73.18 305.02C73.18 305.02 73.09 305.02 73.07 305.02C72.8103 305.622 72.6256 306.253 72.52 306.9V307.02C72.5033 307.134 72.5097 307.251 72.5389 307.362C72.5681 307.474 72.6195 307.579 72.69 307.67Z" fill="black"/>
</g>
<path d="M102.18 288.46C101.785 288.462 101.395 288.363 101.05 288.17C100.625 287.878 100.285 287.477 100.067 287.009C99.8492 286.541 99.7603 286.024 99.81 285.51C99.883 284.195 100.264 282.915 100.922 281.773C101.581 280.632 102.498 279.662 103.6 278.94C104.003 278.6 104.5 278.393 105.025 278.347C105.549 278.301 106.075 278.417 106.531 278.681C106.987 278.944 107.351 279.342 107.573 279.819C107.794 280.297 107.863 280.832 107.77 281.35C107.697 282.665 107.316 283.945 106.658 285.087C105.999 286.228 105.082 287.198 103.98 287.92C103.437 288.253 102.817 288.439 102.18 288.46ZM105.4 279.14C104.895 279.161 104.405 279.317 103.98 279.59C102.984 280.239 102.155 281.113 101.559 282.141C100.963 283.169 100.618 284.323 100.55 285.51C100.475 285.885 100.518 286.275 100.675 286.624C100.831 286.973 101.093 287.265 101.423 287.459C101.753 287.652 102.135 287.738 102.517 287.704C102.898 287.671 103.259 287.519 103.55 287.27C104.546 286.622 105.374 285.748 105.969 284.719C106.563 283.691 106.906 282.536 106.97 281.35C107.013 280.97 106.956 280.584 106.803 280.233C106.65 279.882 106.408 279.578 106.1 279.35C105.887 279.225 105.647 279.153 105.4 279.14Z" fill="#214E34"/>
<path d="M101.31 284.65L105.01 280.39C105.047 280.347 105.098 280.318 105.153 280.308C105.209 280.298 105.267 280.306 105.317 280.333C105.367 280.36 105.406 280.403 105.429 280.455C105.451 280.507 105.455 280.565 105.44 280.62L103.84 286.56L103.3 284.21L101.31 284.65Z" fill="#214E34"/>
<path d="M103.79 278.19C103.741 278.191 103.692 278.183 103.647 278.165C103.601 278.147 103.56 278.119 103.525 278.085C103.491 278.05 103.463 278.009 103.445 277.963C103.427 277.918 103.419 277.869 103.42 277.82V276.43C103.42 276.332 103.459 276.238 103.528 276.168C103.598 276.099 103.692 276.06 103.79 276.06C103.887 276.063 103.98 276.102 104.049 276.171C104.118 276.24 104.157 276.333 104.16 276.43V277.82C104.16 277.918 104.121 278.012 104.052 278.082C103.982 278.151 103.888 278.19 103.79 278.19Z" fill="#214E34"/>
<path d="M103.79 290.74C103.692 290.74 103.598 290.701 103.528 290.632C103.459 290.562 103.42 290.468 103.42 290.37V289C103.419 288.951 103.427 288.902 103.445 288.857C103.463 288.811 103.491 288.77 103.525 288.735C103.56 288.701 103.601 288.673 103.647 288.655C103.692 288.637 103.741 288.629 103.79 288.63C103.888 288.63 103.982 288.669 104.052 288.738C104.121 288.808 104.16 288.902 104.16 289V290.39C104.153 290.484 104.111 290.572 104.042 290.636C103.974 290.701 103.884 290.738 103.79 290.74Z" fill="#214E34"/>
<path d="M108.62 281C108.555 280.999 108.491 280.982 108.434 280.948C108.378 280.915 108.332 280.867 108.3 280.81C108.275 280.768 108.258 280.722 108.251 280.673C108.244 280.625 108.246 280.575 108.259 280.528C108.271 280.48 108.292 280.436 108.321 280.397C108.351 280.358 108.388 280.325 108.43 280.3L109.64 279.61C109.682 279.585 109.728 279.568 109.777 279.561C109.825 279.554 109.875 279.556 109.922 279.569C109.97 279.581 110.014 279.602 110.053 279.631C110.092 279.661 110.125 279.698 110.15 279.74C110.175 279.783 110.191 279.83 110.197 279.878C110.204 279.927 110.2 279.977 110.187 280.024C110.174 280.072 110.152 280.116 110.121 280.155C110.091 280.194 110.053 280.226 110.01 280.25L108.8 280.95C108.745 280.982 108.683 280.999 108.62 281Z" fill="#214E34"/>
<path d="M97.75 287.26C97.6691 287.259 97.5909 287.231 97.5272 287.181C97.4636 287.131 97.4181 287.062 97.3976 286.983C97.3772 286.905 97.383 286.822 97.4142 286.748C97.4453 286.673 97.5 286.611 97.57 286.57L98.77 285.87C98.8549 285.82 98.9563 285.805 99.0519 285.829C99.1476 285.854 99.2296 285.915 99.28 286C99.3304 286.085 99.345 286.186 99.3206 286.282C99.2962 286.378 99.2349 286.46 99.15 286.51L97.94 287.21C97.8835 287.246 97.817 287.264 97.75 287.26Z" fill="#214E34"/>
<g opacity="0.1">
<path d="M102.18 288.46C101.785 288.462 101.395 288.363 101.05 288.17C100.625 287.878 100.285 287.477 100.067 287.009C99.8492 286.541 99.7603 286.024 99.81 285.51C99.883 284.195 100.264 282.915 100.922 281.773C101.581 280.632 102.498 279.662 103.6 278.94C104.003 278.6 104.5 278.393 105.025 278.347C105.549 278.301 106.075 278.417 106.531 278.681C106.987 278.944 107.351 279.342 107.573 279.819C107.794 280.297 107.863 280.832 107.77 281.35C107.697 282.665 107.316 283.945 106.658 285.087C105.999 286.228 105.082 287.198 103.98 287.92C103.437 288.253 102.817 288.439 102.18 288.46ZM105.4 279.14C104.895 279.161 104.405 279.317 103.98 279.59C102.984 280.239 102.155 281.113 101.559 282.141C100.963 283.169 100.618 284.323 100.55 285.51C100.475 285.885 100.518 286.275 100.675 286.624C100.831 286.973 101.093 287.265 101.423 287.459C101.753 287.652 102.135 287.738 102.517 287.704C102.898 287.671 103.259 287.519 103.55 287.27C104.546 286.622 105.374 285.748 105.969 284.719C106.563 283.691 106.906 282.536 106.97 281.35C107.013 280.97 106.956 280.584 106.803 280.233C106.65 279.882 106.408 279.578 106.1 279.35C105.887 279.225 105.647 279.153 105.4 279.14Z" fill="black"/>
<path d="M101.31 284.65L105.01 280.39C105.047 280.347 105.098 280.318 105.153 280.308C105.209 280.298 105.267 280.306 105.317 280.333C105.367 280.36 105.406 280.403 105.429 280.455C105.451 280.507 105.455 280.565 105.44 280.62L103.84 286.56L103.3 284.21L101.31 284.65Z" fill="black"/>
<path d="M103.79 278.19C103.741 278.191 103.692 278.183 103.647 278.165C103.601 278.147 103.56 278.119 103.525 278.085C103.491 278.05 103.463 278.009 103.445 277.963C103.427 277.918 103.419 277.869 103.42 277.82V276.43C103.42 276.332 103.459 276.238 103.528 276.168C103.598 276.099 103.692 276.06 103.79 276.06C103.887 276.063 103.98 276.102 104.049 276.171C104.118 276.24 104.157 276.333 104.16 276.43V277.82C104.16 277.918 104.121 278.012 104.052 278.082C103.982 278.151 103.888 278.19 103.79 278.19Z" fill="black"/>
<path d="M103.79 290.74C103.692 290.74 103.598 290.701 103.528 290.632C103.459 290.562 103.42 290.468 103.42 290.37V289C103.419 288.951 103.427 288.902 103.445 288.857C103.463 288.811 103.491 288.77 103.525 288.735C103.56 288.701 103.601 288.673 103.647 288.655C103.692 288.637 103.741 288.629 103.79 288.63C103.888 288.63 103.982 288.669 104.052 288.738C104.121 288.808 104.16 288.902 104.16 289V290.39C104.153 290.484 104.111 290.572 104.042 290.636C103.974 290.701 103.884 290.738 103.79 290.74Z" fill="black"/>
<path d="M108.62 281C108.555 280.999 108.491 280.982 108.434 280.948C108.378 280.915 108.332 280.867 108.3 280.81C108.275 280.768 108.258 280.722 108.251 280.673C108.244 280.625 108.246 280.575 108.259 280.528C108.271 280.48 108.292 280.436 108.321 280.397C108.351 280.358 108.388 280.325 108.43 280.3L109.64 279.61C109.682 279.585 109.728 279.568 109.777 279.561C109.825 279.554 109.875 279.556 109.922 279.569C109.97 279.581 110.014 279.602 110.053 279.631C110.092 279.661 110.125 279.698 110.15 279.74C110.175 279.783 110.191 279.83 110.197 279.878C110.204 279.927 110.2 279.977 110.187 280.024C110.174 280.072 110.152 280.116 110.121 280.155C110.091 280.194 110.053 280.226 110.01 280.25L108.8 280.95C108.745 280.982 108.683 280.999 108.62 281Z" fill="black"/>
<path d="M97.75 287.26C97.6691 287.259 97.5909 287.231 97.5272 287.181C97.4636 287.131 97.4181 287.062 97.3976 286.983C97.3772 286.905 97.383 286.822 97.4142 286.748C97.4453 286.673 97.5 286.611 97.57 286.57L98.77 285.87C98.8549 285.82 98.9563 285.805 99.0519 285.829C99.1476 285.854 99.2296 285.915 99.28 286C99.3304 286.085 99.345 286.186 99.3206 286.282C99.2962 286.378 99.2349 286.46 99.15 286.51L97.94 287.21C97.8835 287.246 97.817 287.264 97.75 287.26Z" fill="black"/>
</g>
<path d="M58.2287 339.305V327.66L64.9229 323.835V325.865L60.3663 328.468V331.243L64.4786 328.893V330.923L60.3663 333.273V338.083L58.2287 339.305ZM66.3607 334.658V323.013L70.3495 320.734C71.113 320.298 71.7647 320.083 72.3044 320.089C72.8475 320.089 73.2605 320.295 73.5435 320.706C73.8299 321.111 73.973 321.698 73.973 322.467C73.973 323.24 73.8282 323.988 73.5386 324.711C73.249 325.43 72.8294 326.094 72.2797 326.704C71.7334 327.312 71.0719 327.838 70.2952 328.282L67.6245 329.808V327.829L69.9496 326.5C70.3577 326.267 70.6967 326.009 70.9666 325.726C71.2365 325.443 71.4372 325.135 71.5689 324.802C71.7038 324.467 71.7713 324.108 71.7713 323.725C71.7713 323.339 71.7038 323.051 71.5689 322.863C71.4372 322.673 71.2348 322.588 70.9617 322.607C70.6918 322.621 70.3512 322.746 69.9398 322.981L68.4983 323.805V333.436L66.3607 334.658ZM71.8206 326.239L74.3334 330.102L71.9737 331.45L69.5152 327.556L71.8206 326.239ZM77.6212 316.579V328.223L75.4836 329.445V317.8L77.6212 316.579ZM84.4417 324.326L79.6709 327.052V311.552L84.4812 308.803C85.8349 308.029 87.0002 307.674 87.9771 307.736C88.9541 307.793 89.7054 308.25 90.2311 309.105C90.7612 309.957 91.0263 311.188 91.0263 312.798C91.0263 314.412 90.7612 315.952 90.2311 317.415C89.7054 318.876 88.9497 320.198 87.964 321.382C86.9827 322.564 85.8086 323.545 84.4417 324.326ZM82.5163 322.618L84.3234 321.585C85.1646 321.105 85.8721 320.529 86.446 319.858C87.0243 319.179 87.458 318.394 87.7471 317.502C88.0407 316.603 88.1874 315.576 88.1874 314.42C88.1874 313.275 88.0407 312.423 87.7471 311.864C87.458 311.302 87.0265 311.014 86.4526 310.999C85.8787 310.984 85.1712 311.216 84.33 311.697L82.5163 312.734V322.618ZM94.6947 318.467L91.6456 320.209L96.2916 302.054L99.9584 299.959L104.598 312.808L101.549 314.55L98.1776 304.518L98.0724 304.578L94.6947 318.467ZM94.5042 312.483L101.706 308.368V310.926L94.5042 315.041V312.483ZM104.056 297.617L107.243 295.796L110.312 300.718L110.443 300.643L113.512 292.214L116.699 290.393L111.79 303.218V308.698L108.965 310.313V304.833L104.056 297.617Z" fill="#011638"/>
<path opacity="0.8" d="M157.08 287.51L186.78 270.37C188.124 269.494 189.242 268.312 190.043 266.922C190.844 265.532 191.306 263.972 191.39 262.37V123.19C191.39 120.25 189.33 119.06 186.78 120.53L157.08 137.67C155.735 138.546 154.615 139.727 153.812 141.117C153.01 142.507 152.546 144.067 152.46 145.67V284.85C152.46 287.79 154.53 289 157.08 287.51Z" fill="#214E34"/>
<path d="M173.166 236.771V235.952L174.818 233.215C174.959 232.975 175.077 232.764 175.172 232.583C175.268 232.4 175.342 232.234 175.392 232.084C175.441 231.932 175.466 231.786 175.466 231.644C175.466 231.487 175.435 231.369 175.373 231.291C175.311 231.212 175.227 231.173 175.12 231.175C175.012 231.174 174.891 231.214 174.755 231.294C174.613 231.377 174.489 231.482 174.383 231.611C174.277 231.739 174.196 231.882 174.138 232.04C174.081 232.198 174.052 232.362 174.052 232.534L173.121 233.078C173.121 232.726 173.19 232.381 173.327 232.042C173.465 231.702 173.657 231.389 173.905 231.103C174.153 230.816 174.438 230.578 174.762 230.389C175.094 230.195 175.383 230.094 175.629 230.087C175.877 230.076 176.07 230.151 176.207 230.31C176.345 230.47 176.414 230.704 176.414 231.014C176.414 231.217 176.379 231.438 176.309 231.676C176.241 231.914 176.12 232.204 175.944 232.548C175.769 232.891 175.522 233.323 175.203 233.845L174.526 235.01V235.047L176.475 233.908V234.837L173.166 236.771ZM177.369 234.314L179.293 228.779V228.743L177.052 230.053V229.124L180.308 227.22V228.162L178.382 233.722L177.369 234.314ZM182.071 228.733C181.865 228.853 181.678 228.905 181.509 228.888C181.341 228.869 181.208 228.792 181.108 228.656C181.008 228.518 180.958 228.33 180.958 228.092C180.958 227.856 181.008 227.611 181.108 227.359C181.208 227.105 181.341 226.871 181.509 226.657C181.678 226.441 181.865 226.273 182.071 226.153C182.276 226.033 182.463 225.982 182.631 226.001C182.8 226.018 182.934 226.095 183.034 226.233C183.134 226.369 183.184 226.555 183.184 226.791C183.184 227.029 183.134 227.275 183.034 227.53C182.934 227.782 182.8 228.016 182.631 228.233C182.463 228.446 182.276 228.613 182.071 228.733ZM182.071 227.988C182.159 227.936 182.238 227.865 182.309 227.775C182.38 227.684 182.436 227.586 182.477 227.48C182.519 227.373 182.54 227.269 182.54 227.167C182.54 227.068 182.519 226.989 182.477 226.931C182.436 226.873 182.38 226.84 182.309 226.833C182.238 226.825 182.159 226.847 182.071 226.898C181.985 226.949 181.906 227.019 181.835 227.11C181.764 227.2 181.708 227.299 181.665 227.406C181.623 227.513 181.602 227.616 181.602 227.716C181.602 227.817 181.623 227.897 181.665 227.954C181.708 228.012 181.764 228.044 181.835 228.052C181.906 228.059 181.985 228.038 182.071 227.988ZM187.92 224.652L186.927 225.233C186.909 225.094 186.872 224.984 186.816 224.901C186.76 224.816 186.689 224.759 186.601 224.728C186.513 224.697 186.412 224.693 186.297 224.716C186.184 224.739 186.061 224.789 185.928 224.867C185.688 225.007 185.478 225.198 185.3 225.441C185.122 225.682 184.984 225.962 184.885 226.282C184.787 226.6 184.738 226.945 184.738 227.318C184.738 227.701 184.787 227.995 184.885 228.198C184.985 228.4 185.124 228.516 185.302 228.545C185.481 228.574 185.687 228.52 185.921 228.383C186.052 228.306 186.174 228.215 186.286 228.109C186.399 228.003 186.5 227.885 186.587 227.757C186.675 227.627 186.747 227.489 186.805 227.344C186.864 227.197 186.905 227.046 186.927 226.889L187.92 226.314C187.894 226.576 187.83 226.851 187.727 227.14C187.626 227.427 187.489 227.711 187.317 227.992C187.146 228.27 186.942 228.531 186.705 228.775C186.469 229.016 186.203 229.223 185.905 229.397C185.491 229.639 185.121 229.747 184.795 229.721C184.47 229.694 184.213 229.53 184.024 229.229C183.837 228.927 183.743 228.484 183.743 227.9C183.743 227.314 183.838 226.759 184.029 226.237C184.219 225.714 184.478 225.25 184.804 224.844C185.13 224.436 185.497 224.113 185.905 223.874C186.174 223.717 186.423 223.615 186.653 223.568C186.884 223.521 187.089 223.529 187.267 223.593C187.445 223.655 187.59 223.774 187.702 223.95C187.816 224.125 187.888 224.359 187.92 224.652Z" fill="#011638"/>
<path d="M175.185 245.195V250.571L174.204 251.144V246.847L174.177 246.863L173.114 248.256V247.248L174.263 245.734L175.185 245.195ZM178.307 243.37V248.746L177.326 249.319V245.022L177.299 245.038L176.236 246.431V245.423L177.385 243.909L178.307 243.37ZM180.5 244.631C180.295 244.751 180.108 244.803 179.938 244.786C179.771 244.767 179.637 244.69 179.537 244.554C179.438 244.416 179.388 244.228 179.388 243.99C179.388 243.754 179.438 243.51 179.537 243.257C179.637 243.003 179.771 242.769 179.938 242.555C180.108 242.339 180.295 242.171 180.5 242.051C180.706 241.931 180.893 241.88 181.06 241.899C181.229 241.916 181.364 241.993 181.464 242.131C181.563 242.267 181.613 242.453 181.613 242.689C181.613 242.927 181.563 243.173 181.464 243.428C181.364 243.68 181.229 243.915 181.06 244.131C180.893 244.344 180.706 244.511 180.5 244.631ZM180.5 243.886C180.588 243.834 180.667 243.764 180.738 243.673C180.809 243.583 180.865 243.484 180.906 243.378C180.948 243.271 180.97 243.167 180.97 243.065C180.97 242.966 180.948 242.887 180.906 242.83C180.865 242.771 180.809 242.738 180.738 242.731C180.667 242.723 180.588 242.745 180.5 242.796C180.414 242.847 180.336 242.917 180.265 243.008C180.194 243.098 180.137 243.197 180.095 243.304C180.053 243.411 180.031 243.514 180.031 243.614C180.031 243.715 180.053 243.795 180.095 243.852C180.137 243.91 180.194 243.942 180.265 243.95C180.336 243.957 180.414 243.936 180.5 243.886ZM186.349 240.55L185.357 241.131C185.339 240.992 185.302 240.882 185.246 240.799C185.19 240.715 185.118 240.657 185.03 240.626C184.943 240.595 184.842 240.591 184.727 240.614C184.613 240.637 184.49 240.687 184.357 240.765C184.117 240.905 183.908 241.096 183.73 241.339C183.551 241.58 183.413 241.86 183.315 242.18C183.217 242.498 183.168 242.843 183.168 243.216C183.168 243.599 183.217 243.893 183.315 244.096C183.415 244.299 183.554 244.414 183.732 244.443C183.91 244.472 184.116 244.418 184.351 244.281C184.482 244.204 184.604 244.113 184.715 244.007C184.829 243.901 184.929 243.783 185.017 243.655C185.104 243.525 185.177 243.387 185.234 243.242C185.293 243.095 185.334 242.944 185.357 242.787L186.349 242.212C186.324 242.474 186.259 242.749 186.157 243.039C186.056 243.325 185.919 243.609 185.747 243.89C185.576 244.168 185.372 244.429 185.135 244.673C184.899 244.914 184.632 245.121 184.335 245.295C183.921 245.537 183.551 245.645 183.224 245.619C182.9 245.592 182.643 245.428 182.454 245.127C182.267 244.825 182.173 244.382 182.173 243.798C182.173 243.212 182.268 242.657 182.458 242.135C182.649 241.612 182.907 241.148 183.233 240.742C183.56 240.334 183.927 240.011 184.335 239.773C184.604 239.615 184.853 239.513 185.083 239.467C185.314 239.419 185.518 239.427 185.697 239.491C185.875 239.553 186.02 239.672 186.132 239.848C186.245 240.023 186.318 240.257 186.349 240.55Z" fill="#011638"/>
<path d="M158.583 239.809L159.793 239.102L161.072 241.967L161.126 241.935L162.404 237.576L163.614 236.868V242.244L162.662 242.801V239.302L162.624 239.324L161.423 243.499L160.775 243.878L159.574 241.094L159.535 241.117V244.629L158.583 245.185V239.809ZM165.223 241.304L164.171 241.919L165.773 235.606L167.038 234.867L168.638 239.308L167.586 239.922L166.424 236.454L166.387 236.476L165.223 241.304ZM165.157 239.229L167.64 237.777V238.665L165.157 240.117V239.229ZM170.116 233.067L171.052 234.352L171.088 234.331L172.029 231.949L173.137 231.301L171.721 234.817L173.169 236.659L172.04 237.318L171.088 236.04L171.052 236.061L170.1 238.452L168.976 239.109L170.429 235.572L169.004 233.718L170.116 233.067Z" fill="#011638"/>
<path d="M158.583 254.799L159.793 254.092L161.072 256.957L161.126 256.925L162.404 252.566L163.614 251.858V257.234L162.662 257.791V254.292L162.624 254.314L161.423 258.489L160.775 258.868L159.574 256.084L159.535 256.107V259.619L158.583 260.175V254.799ZM165.404 250.812V256.188L164.423 256.762V251.386L165.404 250.812ZM170.093 248.071V253.447L169.245 253.942L167.226 251.739L167.192 251.759V255.142L166.211 255.716V250.34L167.072 249.837L169.076 252.047L169.116 252.023V248.642L170.093 248.071Z" fill="#011638"/>
<path d="M184.24 188.93L182.05 190.15V185C182.05 181.19 179.05 180.29 175.71 182.21C173.966 183.346 172.514 184.877 171.472 186.679C170.43 188.48 169.826 190.502 169.71 192.58V193.28C169.245 193.14 168.754 193.107 168.275 193.184C167.795 193.26 167.339 193.443 166.94 193.72C165.687 194.54 164.644 195.643 163.897 196.941C163.15 198.239 162.719 199.695 162.64 201.19V201.5L159.64 203.27C158.816 203.811 158.131 204.539 157.64 205.393C157.148 206.248 156.864 207.206 156.81 208.19C156.81 209.99 158.08 210.72 159.64 209.81L184.26 195.5C185.082 194.959 185.767 194.234 186.258 193.381C186.75 192.529 187.035 191.573 187.09 190.59C187.07 188.75 185.8 188 184.24 188.93Z" fill="#FAFAFA"/>
<path d="M165.35 214.5C165.475 214.601 165.63 214.656 165.79 214.656C165.95 214.656 166.105 214.601 166.23 214.5C166.832 214.049 167.242 213.389 167.38 212.65C167.464 212.381 167.504 212.101 167.5 211.82V211.55C167.359 210.558 166.982 209.615 166.4 208.8C166.39 208.776 166.373 208.756 166.352 208.742C166.331 208.728 166.306 208.72 166.28 208.72C166.254 208.72 166.229 208.728 166.208 208.742C166.187 208.756 166.17 208.776 166.16 208.8C165.597 210.095 165.197 211.456 164.97 212.85V213.12C164.935 213.364 164.951 213.612 165.016 213.85C165.081 214.087 165.195 214.308 165.35 214.5Z" fill="#FAFAFA"/>
<path d="M173 210.09C173.125 210.191 173.28 210.246 173.44 210.246C173.6 210.246 173.755 210.191 173.88 210.09C174.476 209.634 174.885 208.976 175.03 208.24C175.109 207.97 175.149 207.691 175.15 207.41V207.14C175.009 206.148 174.632 205.205 174.05 204.39C174.038 204.367 174.02 204.347 173.998 204.334C173.976 204.32 173.951 204.313 173.925 204.313C173.899 204.313 173.874 204.32 173.852 204.334C173.83 204.347 173.812 204.367 173.8 204.39C173.244 205.687 172.848 207.047 172.62 208.44V208.71C172.585 208.954 172.601 209.202 172.666 209.44C172.731 209.677 172.845 209.898 173 210.09Z" fill="#FAFAFA"/>
<path d="M180.62 205.68C180.737 205.787 180.888 205.851 181.046 205.86C181.205 205.869 181.361 205.823 181.49 205.73C182.095 205.281 182.509 204.621 182.65 203.88C182.729 203.61 182.769 203.331 182.77 203.05V202.78C182.629 201.788 182.252 200.845 181.67 200.03C181.658 200.007 181.64 199.987 181.618 199.974C181.596 199.96 181.571 199.953 181.545 199.953C181.519 199.953 181.494 199.96 181.472 199.974C181.45 199.987 181.432 200.007 181.42 200.03C180.864 201.327 180.468 202.687 180.24 204.08V204.35C180.189 204.826 180.325 205.303 180.62 205.68Z" fill="#FAFAFA"/>
<path d="M166.892 161.535C166.846 161.027 166.649 160.725 166.3 160.628C165.951 160.532 165.478 160.655 164.88 160.996C164.473 161.228 164.13 161.491 163.85 161.783C163.57 162.071 163.356 162.373 163.206 162.688C163.061 163 162.988 163.303 162.988 163.594C162.98 163.841 163.024 164.028 163.12 164.154C163.22 164.278 163.356 164.357 163.528 164.391C163.701 164.421 163.9 164.419 164.126 164.387C164.353 164.351 164.594 164.292 164.851 164.212L165.909 163.898C166.423 163.737 166.894 163.644 167.324 163.62C167.753 163.595 168.125 163.654 168.439 163.797C168.753 163.94 168.997 164.18 169.169 164.519C169.346 164.855 169.436 165.305 169.44 165.868C169.436 166.7 169.252 167.525 168.888 168.342C168.527 169.153 168.006 169.921 167.324 170.647C166.645 171.366 165.827 171.999 164.868 172.547C163.917 173.09 163.089 173.395 162.384 173.463C161.682 173.528 161.134 173.345 160.739 172.913C160.348 172.474 160.143 171.772 160.124 170.807L162.533 169.43C162.56 169.87 162.673 170.185 162.873 170.375C163.076 170.56 163.346 170.633 163.684 170.594C164.025 170.55 164.41 170.404 164.839 170.159C165.261 169.918 165.627 169.638 165.938 169.319C166.252 168.999 166.495 168.663 166.668 168.313C166.841 167.962 166.927 167.624 166.927 167.297C166.927 166.993 166.848 166.781 166.691 166.664C166.538 166.544 166.311 166.496 166.012 166.522C165.717 166.545 165.355 166.619 164.926 166.745L163.643 167.107C162.65 167.396 161.866 167.409 161.291 167.146C160.716 166.883 160.431 166.25 160.435 165.245C160.431 164.426 160.62 163.6 161.004 162.767C161.391 161.932 161.922 161.15 162.597 160.42C163.271 159.69 164.038 159.08 164.897 158.589C165.771 158.089 166.534 157.826 167.186 157.798C167.841 157.767 168.351 157.955 168.715 158.361C169.079 158.766 169.267 159.37 169.279 160.171L166.892 161.535ZM174.156 167.048L170.604 169.077L176.016 147.929L180.287 145.488L185.691 160.456L182.139 162.486L178.212 150.8L178.09 150.87L174.156 167.048ZM173.934 160.077L182.323 155.284V158.263L173.934 163.057V160.077ZM185.065 145.905V142.758L197.94 135.401V138.548L193.141 141.291V156.199L189.865 158.071V143.163L185.065 145.905Z" fill="#011638"/>
<path opacity="0.8" d="M204.66 260L234.36 242.86C235.705 241.984 236.825 240.803 237.628 239.413C238.43 238.023 238.894 236.463 238.98 234.86V95.71C238.98 92.77 236.91 91.58 234.36 93.05L204.66 110.2C203.315 111.075 202.196 112.256 201.395 113.647C200.594 115.037 200.133 116.597 200.05 118.2V257.37C200.05 260.31 202.11 261.51 204.66 260Z" fill="#214E34"/>
<path d="M220.746 209.291V208.472L222.398 205.735C222.539 205.495 222.657 205.284 222.752 205.103C222.848 204.92 222.922 204.754 222.972 204.604C223.021 204.452 223.046 204.306 223.046 204.164C223.046 204.006 223.015 203.889 222.953 203.811C222.891 203.732 222.807 203.693 222.7 203.695C222.592 203.694 222.471 203.734 222.335 203.813C222.193 203.897 222.069 204.002 221.963 204.131C221.857 204.259 221.776 204.402 221.718 204.56C221.661 204.718 221.632 204.882 221.632 205.054L220.701 205.598C220.701 205.246 220.77 204.901 220.907 204.562C221.045 204.222 221.237 203.909 221.485 203.623C221.733 203.336 222.018 203.098 222.342 202.909C222.674 202.715 222.963 202.614 223.209 202.607C223.457 202.596 223.65 202.671 223.787 202.83C223.925 202.99 223.994 203.224 223.994 203.534C223.994 203.737 223.959 203.958 223.889 204.196C223.821 204.434 223.7 204.724 223.524 205.068C223.349 205.411 223.102 205.843 222.783 206.365L222.106 207.53V207.567L224.055 206.428V207.357L220.746 209.291ZM224.949 206.834L226.873 201.299V201.263L224.632 202.573V201.644L227.888 199.74V200.682L225.962 206.242L224.949 206.834ZM229.651 201.253C229.445 201.373 229.258 201.425 229.089 201.408C228.921 201.389 228.788 201.312 228.688 201.176C228.588 201.038 228.538 200.85 228.538 200.612C228.538 200.376 228.588 200.131 228.688 199.879C228.788 199.625 228.921 199.391 229.089 199.177C229.258 198.961 229.445 198.793 229.651 198.673C229.856 198.553 230.043 198.502 230.211 198.521C230.38 198.538 230.514 198.615 230.614 198.753C230.714 198.889 230.764 199.075 230.764 199.311C230.764 199.549 230.714 199.795 230.614 200.05C230.514 200.302 230.38 200.536 230.211 200.753C230.043 200.966 229.856 201.133 229.651 201.253ZM229.651 200.508C229.739 200.456 229.818 200.385 229.889 200.295C229.96 200.204 230.016 200.106 230.057 200C230.099 199.893 230.12 199.789 230.12 199.687C230.12 199.588 230.099 199.509 230.057 199.451C230.016 199.393 229.96 199.36 229.889 199.353C229.818 199.345 229.739 199.367 229.651 199.418C229.565 199.469 229.486 199.539 229.415 199.63C229.344 199.72 229.288 199.819 229.245 199.926C229.203 200.033 229.182 200.136 229.182 200.236C229.182 200.337 229.203 200.417 229.245 200.474C229.288 200.532 229.344 200.564 229.415 200.572C229.486 200.579 229.565 200.558 229.651 200.508ZM235.5 197.172L234.507 197.753C234.489 197.614 234.452 197.504 234.396 197.421C234.34 197.336 234.269 197.279 234.181 197.248C234.093 197.217 233.992 197.213 233.877 197.236C233.764 197.259 233.641 197.309 233.508 197.387C233.268 197.527 233.058 197.718 232.88 197.961C232.702 198.202 232.564 198.482 232.465 198.802C232.367 199.12 232.318 199.465 232.318 199.838C232.318 200.221 232.367 200.515 232.465 200.718C232.565 200.92 232.704 201.036 232.882 201.065C233.061 201.094 233.267 201.04 233.501 200.903C233.632 200.826 233.754 200.735 233.866 200.629C233.979 200.523 234.08 200.405 234.167 200.277C234.255 200.147 234.327 200.009 234.385 199.864C234.444 199.717 234.485 199.566 234.507 199.409L235.5 198.834C235.474 199.096 235.41 199.371 235.307 199.66C235.206 199.947 235.069 200.231 234.897 200.512C234.726 200.79 234.522 201.051 234.285 201.295C234.049 201.536 233.783 201.743 233.485 201.917C233.071 202.159 232.701 202.267 232.375 202.241C232.05 202.214 231.793 202.05 231.604 201.749C231.417 201.447 231.323 201.004 231.323 200.42C231.323 199.833 231.418 199.279 231.609 198.757C231.799 198.234 232.058 197.77 232.384 197.364C232.71 196.956 233.077 196.633 233.485 196.394C233.754 196.237 234.003 196.135 234.233 196.088C234.464 196.041 234.669 196.049 234.847 196.113C235.025 196.175 235.17 196.294 235.282 196.47C235.396 196.645 235.468 196.879 235.5 197.172Z" fill="#011638"/>
<path d="M222.775 217.715V223.091L221.794 223.664V219.367L221.767 219.383L220.704 220.776V219.768L221.853 218.254L222.775 217.715ZM225.897 215.89V221.266L224.916 221.839V217.542L224.889 217.558L223.826 218.951V217.943L224.975 216.429L225.897 215.89ZM228.09 217.151C227.885 217.271 227.698 217.323 227.528 217.306C227.361 217.287 227.227 217.21 227.127 217.074C227.028 216.936 226.978 216.748 226.978 216.51C226.978 216.274 227.028 216.03 227.127 215.777C227.227 215.523 227.361 215.289 227.528 215.075C227.698 214.859 227.885 214.691 228.09 214.571C228.296 214.451 228.483 214.4 228.65 214.419C228.819 214.436 228.954 214.513 229.054 214.651C229.153 214.787 229.203 214.973 229.203 215.209C229.203 215.447 229.153 215.693 229.054 215.948C228.954 216.2 228.819 216.435 228.65 216.651C228.483 216.864 228.296 217.031 228.09 217.151ZM228.09 216.406C228.178 216.354 228.257 216.284 228.328 216.193C228.399 216.103 228.455 216.004 228.496 215.898C228.538 215.791 228.56 215.687 228.56 215.585C228.56 215.486 228.538 215.407 228.496 215.35C228.455 215.291 228.399 215.258 228.328 215.251C228.257 215.243 228.178 215.265 228.09 215.316C228.004 215.367 227.926 215.437 227.855 215.528C227.784 215.618 227.727 215.717 227.685 215.824C227.643 215.931 227.621 216.034 227.621 216.134C227.621 216.235 227.643 216.315 227.685 216.372C227.727 216.43 227.784 216.462 227.855 216.47C227.926 216.477 228.004 216.456 228.09 216.406ZM233.939 213.07L232.947 213.651C232.929 213.512 232.892 213.402 232.836 213.319C232.78 213.235 232.708 213.177 232.62 213.146C232.533 213.115 232.432 213.111 232.317 213.134C232.204 213.157 232.08 213.207 231.947 213.285C231.707 213.425 231.498 213.616 231.32 213.859C231.141 214.1 231.003 214.38 230.905 214.7C230.807 215.018 230.758 215.364 230.758 215.736C230.758 216.119 230.807 216.413 230.905 216.616C231.005 216.819 231.144 216.934 231.322 216.963C231.5 216.992 231.706 216.938 231.941 216.801C232.072 216.724 232.194 216.633 232.305 216.527C232.419 216.421 232.519 216.303 232.607 216.175C232.694 216.045 232.767 215.907 232.824 215.762C232.883 215.615 232.924 215.464 232.947 215.307L233.939 214.732C233.914 214.994 233.849 215.269 233.747 215.559C233.646 215.845 233.509 216.129 233.337 216.41C233.166 216.688 232.962 216.949 232.725 217.193C232.489 217.434 232.222 217.641 231.925 217.815C231.511 218.057 231.141 218.165 230.814 218.139C230.49 218.112 230.233 217.948 230.044 217.647C229.857 217.345 229.763 216.902 229.763 216.318C229.763 215.732 229.858 215.177 230.048 214.655C230.239 214.132 230.497 213.668 230.823 213.262C231.15 212.854 231.517 212.531 231.925 212.293C232.194 212.135 232.443 212.033 232.673 211.987C232.904 211.939 233.108 211.947 233.287 212.011C233.465 212.073 233.61 212.192 233.722 212.368C233.835 212.543 233.908 212.777 233.939 213.07Z" fill="#011638"/>
<path d="M206.173 212.339L207.383 211.632L208.662 214.497L208.716 214.465L209.994 210.106L211.204 209.398V214.774L210.252 215.331V211.832L210.214 211.854L209.013 216.029L208.365 216.408L207.164 213.624L207.125 213.647V217.159L206.173 217.715V212.339ZM212.813 213.834L211.761 214.449L213.363 208.136L214.628 207.397L216.228 211.838L215.176 212.452L214.014 208.984L213.977 209.006L212.813 213.834ZM212.747 211.759L215.231 210.307V211.195L212.747 212.647V211.759ZM217.706 205.597L218.642 206.882L218.678 206.861L219.619 204.479L220.727 203.831L219.311 207.347L220.759 209.189L219.63 209.848L218.678 208.57L218.642 208.591L217.69 210.982L216.566 211.639L218.019 208.102L216.594 206.248L217.706 205.597Z" fill="#011638"/>
<path d="M206.173 227.319L207.383 226.612L208.662 229.477L208.716 229.445L209.994 225.086L211.204 224.378V229.754L210.252 230.311V226.812L210.214 226.834L209.013 231.009L208.365 231.388L207.164 228.604L207.125 228.627V232.139L206.173 232.695V227.319ZM212.994 223.332V228.708L212.013 229.282V223.906L212.994 223.332ZM217.683 220.591V225.967L216.835 226.462L214.816 224.259L214.782 224.279V227.662L213.801 228.236V222.86L214.662 222.357L216.666 224.567L216.706 224.543V221.162L217.683 220.591Z" fill="#011638"/>
<path d="M231.82 166.45L229.64 167.67V162.5C229.64 158.68 226.64 157.78 223.3 159.7C221.556 160.836 220.103 162.366 219.061 164.168C218.019 165.97 217.415 167.992 217.3 170.07V170.77C216.835 170.63 216.344 170.597 215.865 170.674C215.385 170.75 214.929 170.933 214.53 171.21C213.277 172.03 212.234 173.133 211.487 174.431C210.74 175.729 210.309 177.185 210.23 178.68V179L207.18 180.77C206.356 181.311 205.671 182.039 205.18 182.893C204.688 183.748 204.404 184.706 204.35 185.69C204.35 187.49 205.62 188.22 207.18 187.31L231.82 173C232.644 172.461 233.329 171.735 233.82 170.882C234.312 170.029 234.596 169.073 234.65 168.09C234.65 166.27 233.38 165.55 231.82 166.45Z" fill="#FAFAFA"/>
<path d="M213.162 128.785C213.116 128.277 212.919 127.975 212.57 127.878C212.221 127.782 211.748 127.905 211.15 128.246C210.743 128.478 210.4 128.741 210.12 129.033C209.84 129.321 209.626 129.623 209.476 129.938C209.331 130.25 209.258 130.553 209.258 130.844C209.25 131.091 209.294 131.278 209.39 131.404C209.49 131.528 209.626 131.607 209.798 131.641C209.971 131.671 210.17 131.669 210.396 131.637C210.623 131.601 210.864 131.542 211.121 131.462L212.179 131.148C212.693 130.987 213.164 130.894 213.594 130.87C214.023 130.845 214.395 130.904 214.709 131.047C215.023 131.19 215.267 131.43 215.439 131.769C215.616 132.105 215.706 132.555 215.71 133.118C215.706 133.95 215.522 134.775 215.158 135.592C214.797 136.403 214.276 137.171 213.594 137.897C212.915 138.616 212.097 139.249 211.138 139.797C210.187 140.34 209.359 140.645 208.654 140.713C207.952 140.778 207.404 140.595 207.009 140.163C206.618 139.724 206.413 139.022 206.394 138.057L208.803 136.68C208.83 137.12 208.943 137.435 209.143 137.625C209.346 137.81 209.616 137.883 209.954 137.844C210.295 137.8 210.68 137.654 211.109 137.409C211.531 137.168 211.897 136.888 212.208 136.569C212.522 136.249 212.766 135.913 212.938 135.563C213.111 135.212 213.197 134.874 213.197 134.547C213.197 134.243 213.118 134.031 212.961 133.914C212.808 133.794 212.581 133.746 212.282 133.772C211.987 133.795 211.625 133.869 211.196 133.995L209.913 134.357C208.92 134.646 208.136 134.659 207.561 134.396C206.986 134.133 206.701 133.5 206.705 132.495C206.701 131.676 206.89 130.85 207.274 130.017C207.661 129.182 208.192 128.4 208.867 127.67C209.541 126.94 210.308 126.33 211.167 125.839C212.041 125.339 212.804 125.076 213.456 125.048C214.111 125.017 214.621 125.205 214.985 125.611C215.349 126.016 215.537 126.62 215.549 127.421L213.162 128.785ZM224.659 118.315L227.149 116.892V125.7C227.149 126.69 226.944 127.672 226.533 128.648C226.127 129.622 225.558 130.526 224.826 131.359C224.093 132.189 223.24 132.881 222.267 133.438C221.289 133.996 220.434 134.279 219.702 134.287C218.97 134.291 218.4 134.038 217.994 133.528C217.588 133.018 217.385 132.269 217.385 131.28V122.471L219.874 121.049V129.612C219.874 130.129 219.972 130.532 220.168 130.822C220.367 131.11 220.647 131.266 221.007 131.289C221.368 131.313 221.787 131.188 222.267 130.914C222.75 130.638 223.169 130.284 223.526 129.85C223.886 129.415 224.164 128.94 224.36 128.427C224.559 127.911 224.659 127.395 224.659 126.878V118.315ZM239.048 110.092V123.656L236.897 124.885L231.773 119.276L231.687 119.325V127.862L229.197 129.285V115.721L231.382 114.473L236.466 120.098L236.569 120.039V111.509L239.048 110.092Z" fill="#011638"/>
<path d="M219.18 162.22C217.559 164.392 216.616 166.994 216.47 169.7C215.602 169.697 214.752 169.944 214.02 170.41C212.343 171.464 211.017 172.992 210.21 174.8C208.51 174.57 207.39 173.06 207.39 170.59C207.508 168.522 208.113 166.511 209.156 164.721C210.199 162.931 211.649 161.413 213.39 160.29C216.23 158.66 218.58 159.54 219.18 162.22Z" fill="#FFBDA7"/>
<path opacity="0.8" d="M252.24 232.57L281.94 215.43C283.285 214.554 284.405 213.373 285.208 211.983C286.01 210.593 286.474 209.033 286.56 207.43V68.25C286.56 65.31 284.49 64.12 281.95 65.59L252.24 82.74C250.895 83.6152 249.776 84.7963 248.975 86.1867C248.174 87.5771 247.713 89.1374 247.63 90.74V229.91C247.63 232.85 249.69 234.05 252.24 232.57Z" fill="#214E34"/>
<path d="M268.336 181.811V180.992L269.988 178.255C270.129 178.015 270.247 177.804 270.342 177.623C270.438 177.44 270.512 177.274 270.562 177.124C270.611 176.972 270.636 176.826 270.636 176.684C270.636 176.527 270.605 176.409 270.543 176.331C270.481 176.252 270.397 176.213 270.29 176.215C270.182 176.214 270.061 176.254 269.925 176.334C269.783 176.417 269.659 176.522 269.553 176.651C269.447 176.779 269.366 176.922 269.308 177.08C269.251 177.238 269.222 177.402 269.222 177.574L268.291 178.118C268.291 177.766 268.36 177.421 268.497 177.082C268.635 176.742 268.827 176.429 269.075 176.143C269.323 175.856 269.608 175.618 269.932 175.429C270.264 175.235 270.553 175.134 270.799 175.127C271.047 175.116 271.24 175.191 271.377 175.35C271.515 175.51 271.584 175.744 271.584 176.054C271.584 176.257 271.549 176.478 271.479 176.716C271.411 176.954 271.29 177.244 271.114 177.588C270.939 177.931 270.692 178.363 270.373 178.885L269.696 180.05V180.087L271.645 178.948V179.877L268.336 181.811ZM272.539 179.354L274.463 173.819V173.783L272.222 175.093V174.164L275.478 172.26V173.202L273.552 178.762L272.539 179.354ZM277.241 173.773C277.035 173.893 276.848 173.945 276.679 173.928C276.511 173.909 276.378 173.832 276.278 173.696C276.178 173.558 276.128 173.37 276.128 173.132C276.128 172.896 276.178 172.651 276.278 172.399C276.378 172.145 276.511 171.911 276.679 171.697C276.848 171.481 277.035 171.313 277.241 171.193C277.446 171.073 277.633 171.022 277.801 171.041C277.97 171.058 278.104 171.135 278.204 171.273C278.304 171.409 278.354 171.595 278.354 171.831C278.354 172.069 278.304 172.315 278.204 172.57C278.104 172.822 277.97 173.056 277.801 173.273C277.633 173.486 277.446 173.653 277.241 173.773ZM277.241 173.028C277.329 172.976 277.408 172.906 277.479 172.815C277.55 172.724 277.606 172.626 277.647 172.52C277.689 172.413 277.71 172.309 277.71 172.207C277.71 172.108 277.689 172.029 277.647 171.971C277.606 171.913 277.55 171.88 277.479 171.873C277.408 171.865 277.329 171.887 277.241 171.938C277.155 171.989 277.076 172.059 277.005 172.15C276.934 172.24 276.878 172.339 276.835 172.446C276.793 172.553 276.772 172.656 276.772 172.756C276.772 172.857 276.793 172.937 276.835 172.994C276.878 173.052 276.934 173.084 277.005 173.092C277.076 173.099 277.155 173.078 277.241 173.028ZM283.09 169.692L282.097 170.273C282.079 170.134 282.042 170.024 281.986 169.941C281.93 169.857 281.859 169.799 281.771 169.768C281.683 169.737 281.582 169.733 281.467 169.756C281.354 169.779 281.231 169.829 281.098 169.907C280.858 170.047 280.648 170.238 280.47 170.481C280.292 170.722 280.154 171.002 280.055 171.322C279.957 171.64 279.908 171.985 279.908 172.358C279.908 172.741 279.957 173.035 280.055 173.238C280.155 173.44 280.294 173.556 280.472 173.585C280.651 173.614 280.857 173.56 281.091 173.423C281.222 173.346 281.344 173.255 281.456 173.149C281.569 173.043 281.67 172.925 281.757 172.797C281.845 172.667 281.917 172.529 281.975 172.384C282.034 172.237 282.075 172.086 282.097 171.929L283.09 171.354C283.064 171.616 283 171.891 282.897 172.18C282.796 172.467 282.659 172.751 282.487 173.032C282.316 173.31 282.112 173.571 281.875 173.815C281.639 174.056 281.373 174.263 281.075 174.437C280.661 174.679 280.291 174.787 279.965 174.761C279.64 174.734 279.383 174.57 279.194 174.269C279.007 173.967 278.913 173.524 278.913 172.94C278.913 172.354 279.008 171.799 279.199 171.277C279.389 170.754 279.648 170.29 279.974 169.884C280.3 169.476 280.667 169.153 281.075 168.914C281.344 168.757 281.593 168.655 281.823 168.608C282.054 168.561 282.259 168.569 282.437 168.633C282.615 168.695 282.76 168.814 282.872 168.99C282.986 169.165 283.058 169.399 283.09 169.692Z" fill="#011638"/>
<path d="M270.355 190.235V195.611L269.374 196.184V191.887L269.347 191.903L268.284 193.296V192.288L269.433 190.774L270.355 190.235ZM273.477 188.41V193.786L272.496 194.359V190.062L272.469 190.078L271.406 191.471V190.463L272.555 188.949L273.477 188.41ZM275.67 189.671C275.465 189.791 275.278 189.843 275.108 189.826C274.941 189.807 274.807 189.73 274.707 189.594C274.608 189.456 274.558 189.268 274.558 189.03C274.558 188.794 274.608 188.55 274.707 188.297C274.807 188.043 274.941 187.809 275.108 187.595C275.278 187.379 275.465 187.211 275.67 187.091C275.876 186.971 276.063 186.92 276.23 186.939C276.399 186.956 276.534 187.033 276.634 187.171C276.733 187.307 276.783 187.493 276.783 187.729C276.783 187.967 276.733 188.213 276.634 188.468C276.534 188.72 276.399 188.955 276.23 189.171C276.063 189.384 275.876 189.551 275.67 189.671ZM275.67 188.926C275.758 188.874 275.837 188.804 275.908 188.713C275.979 188.623 276.035 188.524 276.076 188.418C276.118 188.311 276.14 188.207 276.14 188.105C276.14 188.006 276.118 187.927 276.076 187.87C276.035 187.811 275.979 187.778 275.908 187.771C275.837 187.763 275.758 187.785 275.67 187.836C275.584 187.887 275.506 187.957 275.435 188.048C275.364 188.138 275.307 188.237 275.265 188.344C275.223 188.451 275.201 188.554 275.201 188.654C275.201 188.755 275.223 188.835 275.265 188.892C275.307 188.95 275.364 188.982 275.435 188.99C275.506 188.997 275.584 188.976 275.67 188.926ZM281.519 185.59L280.527 186.171C280.509 186.032 280.472 185.922 280.416 185.839C280.36 185.755 280.288 185.697 280.2 185.666C280.113 185.635 280.012 185.631 279.897 185.654C279.783 185.677 279.66 185.727 279.527 185.805C279.287 185.945 279.078 186.136 278.9 186.379C278.721 186.62 278.583 186.9 278.485 187.22C278.387 187.538 278.338 187.883 278.338 188.256C278.338 188.639 278.387 188.933 278.485 189.136C278.585 189.339 278.724 189.454 278.902 189.483C279.08 189.512 279.286 189.458 279.521 189.321C279.652 189.244 279.774 189.153 279.885 189.047C279.999 188.941 280.099 188.823 280.187 188.695C280.274 188.565 280.347 188.427 280.404 188.282C280.463 188.135 280.504 187.984 280.527 187.827L281.519 187.252C281.494 187.514 281.429 187.789 281.327 188.079C281.225 188.365 281.089 188.649 280.917 188.93C280.746 189.208 280.542 189.469 280.305 189.713C280.069 189.954 279.802 190.161 279.505 190.335C279.091 190.577 278.721 190.685 278.394 190.659C278.07 190.632 277.813 190.468 277.624 190.167C277.437 189.865 277.343 189.422 277.343 188.838C277.343 188.252 277.438 187.697 277.628 187.175C277.819 186.652 278.077 186.188 278.403 185.782C278.73 185.374 279.097 185.051 279.505 184.812C279.774 184.655 280.023 184.553 280.253 184.507C280.484 184.459 280.688 184.467 280.867 184.531C281.045 184.593 281.19 184.712 281.302 184.888C281.415 185.063 281.488 185.297 281.519 185.59Z" fill="#011638"/>
<path d="M253.753 184.859L254.963 184.152L256.242 187.017L256.296 186.985L257.574 182.626L258.784 181.918V187.294L257.832 187.851V184.352L257.794 184.374L256.593 188.549L255.945 188.928L254.744 186.144L254.705 186.167V189.679L253.753 190.235V184.859ZM260.393 186.354L259.341 186.969L260.943 180.656L262.208 179.917L263.808 184.358L262.756 184.972L261.594 181.504L261.557 181.526L260.393 186.354ZM260.327 184.279L262.811 182.827V183.715L260.327 185.167V184.279ZM265.286 178.117L266.222 179.402L266.258 179.381L267.199 176.999L268.307 176.351L266.891 179.867L268.339 181.709L267.21 182.368L266.258 181.09L266.222 181.111L265.27 183.502L264.146 184.159L265.599 180.622L264.174 178.768L265.286 178.117Z" fill="#011638"/>
<path d="M253.753 199.839L254.963 199.132L256.242 201.997L256.296 201.965L257.574 197.606L258.784 196.898V202.274L257.832 202.831V199.332L257.794 199.354L256.593 203.529L255.945 203.908L254.744 201.124L254.705 201.147V204.659L253.753 205.215V199.839ZM260.574 195.852V201.228L259.593 201.802V196.426L260.574 195.852ZM265.263 193.111V198.487L264.415 198.982L262.396 196.779L262.362 196.799V200.182L261.381 200.756V195.38L262.242 194.877L264.246 197.087L264.286 197.063V193.682L265.263 193.111Z" fill="#011638"/>
<path d="M253.474 101.675L256.544 99.9201L259.788 107.18L259.926 107.101L263.169 96.1347L266.239 94.38V107.944L263.824 109.324V100.496L263.727 100.551L260.679 111.055L259.034 111.995L255.987 104.941L255.889 104.997V113.859L253.474 115.239V101.675ZM279.113 93.8055C279.113 95.2847 278.87 96.6822 278.383 97.998C277.9 99.3116 277.241 100.481 276.405 101.506C275.573 102.524 274.637 103.331 273.599 103.924C272.552 104.522 271.613 104.785 270.781 104.713C269.949 104.641 269.292 104.224 268.808 103.462C268.325 102.701 268.084 101.583 268.084 100.108C268.084 98.6289 268.325 97.2325 268.808 95.9188C269.292 94.6052 269.949 93.4392 270.781 92.4207C271.613 91.3978 272.552 90.5874 273.599 89.9893C274.637 89.3957 275.573 89.1349 276.405 89.207C277.241 89.2726 277.9 89.6861 278.383 90.4477C278.87 91.2071 279.113 92.3264 279.113 93.8055ZM276.589 95.2481C276.589 94.2899 276.464 93.5531 276.215 93.0376C275.97 92.5199 275.623 92.2193 275.174 92.1356C274.726 92.0519 274.2 92.182 273.599 92.526C272.997 92.8699 272.471 93.34 272.023 93.9363C271.574 94.5326 271.226 95.2309 270.976 96.0311C270.731 96.8292 270.608 97.7073 270.608 98.6655C270.608 99.6236 270.731 100.362 270.976 100.879C271.226 101.395 271.574 101.694 272.023 101.778C272.471 101.862 272.997 101.732 273.599 101.388C274.2 101.044 274.726 100.574 275.174 99.9773C275.623 99.381 275.97 98.6838 276.215 97.8857C276.464 97.0854 276.589 96.2062 276.589 95.2481ZM290.808 80.3407V93.9047L288.657 95.1337L283.534 89.5244L283.448 89.5737V98.1108L280.958 99.5336V85.9696L283.143 84.7209L288.226 90.3466L288.33 90.2875V81.757L290.808 80.3407Z" fill="#011638"/>
<path d="M267.09 132.84C271.87 130.09 275.74 132.32 275.74 137.84C275.74 143.36 271.87 150.06 267.09 152.84C262.31 155.62 258.44 153.36 258.44 147.84C258.44 142.32 262.31 135.6 267.09 132.84Z" fill="#FFBDA7"/>
<path d="M409.94 72.77H410.37H410.89C411.037 72.7804 411.184 72.7804 411.33 72.77C412 72.77 411.82 72.42 411.96 72.09L412.66 69.26C413.22 66.92 413.92 63.78 414.53 60.61C414.84 59.03 415.11 57.44 415.35 55.94C415.46 55.19 415.59 54.47 415.68 53.78C415.77 53.09 415.86 52.44 415.94 51.84C416.02 51.24 416.08 50.68 416.13 50.19C416.18 49.7 416.23 49.27 416.26 48.91C416.33 48.2 416.35 47.79 416.35 47.79C416.35 47.79 416.17 48.16 415.89 48.79C415.74 49.11 415.57 49.51 415.38 49.97C415.19 50.43 414.97 50.97 414.75 51.5L414 53.42C413.74 54.07 413.51 54.76 413.25 55.42C412.73 56.85 412.25 58.42 411.71 59.91C410.71 62.97 409.82 66.06 409.18 68.39L408.43 71.2C408.43 71.56 408.07 71.76 408.64 72.1C408.74 72.17 408.91 72.26 409.03 72.33L409.5 72.54L409.94 72.77Z" fill="#011638"/>
<path d="M356.59 148.41C349.76 150.68 348.09 151.18 343.35 158.55C338.8 165.62 334.12 178.69 330.05 189.17C322.53 187.03 309.62 180.08 304.53 176.74C300.53 174.13 299.81 172.16 297.65 169.6C295.49 167.04 291.49 161.37 290.56 164.86C289.94 167.22 292.44 168.54 292.27 171.09C292.13 172.45 283.92 167.3 280.68 165.03C278.53 163.52 273.54 168.24 275.54 173.36C277.31 177.89 280.15 180.76 285.23 182.91C290.6 185.19 293.41 186.32 300.15 189.35C307.2 192.51 333.01 208.89 335.88 207.09C342.42 203.86 348.41 183.63 352.37 174.89C356.33 166.15 353.72 157.15 356.59 148.41Z" fill="#B16668"/>
<path d="M358.25 147.57C355.32 151.43 356.52 149.87 355.62 155.82C354.89 160.62 344.81 206.82 335.68 208.7C331.68 209.55 306 192.81 298.99 188.95C301.35 185.45 303.72 181.14 304.53 176.74C308.74 179.05 324.18 186.74 329.39 188.39C331.79 181.68 334.73 174.79 337.49 168.02C342.75 155.14 345.72 146 358.25 147.57Z" fill="#E0E0E0"/>
<path d="M398.522 356.649L387.173 356.73L387.324 377.919L398.674 377.838L398.522 356.649Z" fill="#B16668"/>
<path d="M356.38 364.32L344 364.84L343.83 343.4L357.85 342.84L356.38 364.32Z" fill="#B16668"/>
<path d="M396.16 224.54C396.24 234.87 397.37 294.9 397.37 294.9C397.65 297.9 400.54 303.14 400.84 313.84C401.27 329.36 398.56 365.95 398.56 365.95C398.56 365.95 393.99 368.95 387.17 366.18C387.17 366.18 378.25 314.6 376.17 299.25C374.39 285.86 369.31 250.81 369.31 250.81L362.31 296.43C363.148 301.884 363.393 307.413 363.04 312.92C362.62 320 357 355.4 357 355.4C352.809 357.017 348.18 357.092 343.94 355.61C343.94 355.61 341.55 300.61 341.38 294.07C341.19 286.64 343.97 222.67 343.97 222.67L396.16 224.54Z" fill="#263238"/>
<path d="M387.25 372.35V370.73C386.64 370.73 386.25 371.33 386.04 372.79C385.883 373.87 385.669 374.942 385.4 376C384.916 377.99 384.267 379.937 383.46 381.82C381.89 385.82 380.55 387.27 376.91 391.92C376.05 393.02 374.09 394.77 373.41 396C372.73 397.23 372.52 400.62 373.69 401.39C377.99 404.22 384.5 404.25 389.09 402.87C390.803 402.38 392.338 401.407 393.514 400.069C394.689 398.73 395.455 397.082 395.72 395.32C395.88 394.27 395.81 393.2 395.92 392.15C396.305 389.753 397.265 387.484 398.72 385.54C399.561 384.416 400.282 383.205 400.87 381.93C401.81 379.59 401.03 376.98 400.4 374.66C399.86 372.66 399.27 370.45 398.59 370.66C398.59 370.9 398.59 371.89 398.59 371.89C397.77 372.81 395.5 373.74 392.93 373.89C391.27 373.92 387.24 373.62 387.25 372.35Z" fill="#263238"/>
<path d="M344 360.74C343.36 360.74 342.72 361.96 341.31 363.5C339.205 365.658 336.755 367.449 334.06 368.8C329.44 371.15 320.44 374.8 316.38 376.66C313.83 377.82 313.98 380.9 316.62 382.66C319.26 384.42 325.62 385.61 333.27 383.84C337.43 382.84 342.82 379 346.27 379.18C349.72 379.36 356.12 379.27 358.64 377.51C361.16 375.75 360.12 372.03 359.38 368.83C358.57 365.34 357.9 359.48 356.75 359.72L356.54 361.45C355.07 363.71 344.9 364.28 344.03 362.12L344 360.74Z" fill="#263238"/>
<path d="M369.34 250.81C369.34 250.81 359.67 247.73 353.21 241.58C353.21 241.58 356.15 247 364.83 252L363 292L369.34 250.81Z" fill="black"/>
<path d="M377.56 147.39C379.84 147.94 386.69 148.51 390.72 149.66C393.72 150.52 393.59 154.24 394.21 156.97C396.21 165.7 396.53 184.03 396.53 184.03L396.65 231.77C389.26 237.15 358.89 239.88 343.34 228.52C343.34 228.52 345.24 172.64 345.24 164.73C345.24 156.82 349.63 147.31 361.77 146.61L377.56 147.39Z" fill="#F0F0F0"/>
<path d="M375 113.35C375 116.166 374.165 118.92 372.6 121.261C371.035 123.603 368.811 125.428 366.209 126.506C363.607 127.584 360.744 127.866 357.982 127.316C355.22 126.767 352.682 125.411 350.691 123.419C348.699 121.428 347.343 118.89 346.794 116.128C346.244 113.366 346.526 110.503 347.604 107.901C348.682 105.299 350.507 103.075 352.849 101.51C355.19 99.9451 357.944 99.11 360.76 99.11C364.536 99.1126 368.156 100.614 370.826 103.284C373.496 105.954 374.997 109.574 375 113.35Z" fill="#263238"/>
<path d="M385.34 123.47C385.34 123.47 383 134.32 382.1 136.1C381.483 137.2 380.466 138.02 379.26 138.39L379.43 130.76L385.34 123.47Z" fill="#263238"/>
<path d="M382.58 106.37C383.371 106.376 384.153 106.543 384.878 106.859C385.603 107.175 386.257 107.635 386.8 108.21C388.7 110.15 387.7 117.52 385.34 123.47L381 124L382.58 106.37Z" fill="#263238"/>
<path d="M379.68 124C380.56 124.52 381.8 122.84 382.87 121.72C383.94 120.6 387.46 119.06 389.21 122.72C390.96 126.38 387.66 131.45 384.9 132.32C380.14 133.81 379.43 130.76 379.43 130.76L379.07 148.46C375.78 152.68 368.39 157.64 364.4 156.93C361.23 156.37 360.53 151 363.57 147.48V142.25C361.452 142.592 359.302 142.702 357.16 142.58C353.66 142.04 351.45 139.28 350.39 135.49C348.68 129.4 348.04 124.49 349.48 112.49C351.07 99.37 366.33 99.23 374.58 104.42C382.83 109.61 379.68 124 379.68 124Z" fill="#B16668"/>
<path d="M348.26 106.67C349.48 107.59 350.827 108.328 352.26 108.86C356.871 110.596 361.893 110.923 366.69 109.8C367 109.73 371.19 108.62 371.1 108.27C371.301 109.604 371.873 110.855 372.75 111.88C373.852 113.002 375.182 113.875 376.65 114.44C376.95 116.8 376.94 119.83 377.08 122.2C377.13 123.01 377.13 127.2 379.03 125.99C379.658 125.441 380.216 124.816 380.69 124.13C381.369 123.278 382.097 122.467 382.87 121.7C383.44 121.19 383.4 120 383.43 119.32C383.47 117.895 383.42 116.469 383.28 115.05C383.17 113.59 382.92 112.13 382.79 110.67C382.839 109.831 383.039 109.008 383.38 108.24C383.653 107.336 383.777 106.394 383.75 105.45C383.59 102.52 381.34 100.02 378.7 98.72C375 96.91 370.53 96.62 366.5 96.95C363.24 97.22 360.06 97.22 356.79 97.17C355.97 97.17 346.88 96.74 346.89 96.62C346.662 98.6374 347.128 100.672 348.21 102.39L345.33 102.51C344.91 102.51 346.05 104.51 346.13 104.57C346.652 105.239 347.246 105.849 347.9 106.39L348.26 106.67Z" fill="#263238"/>
<path d="M383.44 107.9L388.71 105.07C388.541 104.714 388.302 104.396 388.007 104.136C387.712 103.875 387.367 103.677 386.993 103.554C386.619 103.43 386.224 103.384 385.831 103.418C385.439 103.451 385.057 103.564 384.71 103.75C384.005 104.145 383.479 104.797 383.243 105.57C383.006 106.343 383.077 107.178 383.44 107.9Z" fill="#263238"/>
<path d="M363.58 142.25C363.58 142.25 371.4 140.68 374.13 139.25C375.736 138.415 377.054 137.115 377.91 135.52C377.498 137.12 376.767 138.62 375.76 139.93C373.76 142.48 363.58 144.36 363.58 144.36V142.25Z" fill="#9A4A4D"/>
<path d="M364.38 121.2C364.392 121.529 364.5 121.848 364.692 122.116C364.883 122.385 365.15 122.591 365.458 122.709C365.765 122.827 366.101 122.852 366.423 122.78C366.745 122.709 367.039 122.544 367.268 122.307C367.496 122.07 367.651 121.77 367.711 121.446C367.771 121.122 367.734 120.787 367.606 120.484C367.477 120.18 367.262 119.922 366.987 119.739C366.712 119.557 366.39 119.46 366.06 119.46C365.835 119.463 365.613 119.51 365.406 119.599C365.2 119.688 365.013 119.817 364.857 119.979C364.7 120.141 364.578 120.332 364.496 120.542C364.414 120.751 364.375 120.975 364.38 121.2Z" fill="#263238"/>
<path d="M366.06 115.52L369.52 117.44C369.77 116.966 369.826 116.413 369.677 115.899C369.528 115.384 369.185 114.947 368.72 114.68C368.491 114.555 368.24 114.477 367.98 114.451C367.721 114.426 367.459 114.453 367.211 114.532C366.962 114.61 366.732 114.738 366.534 114.908C366.336 115.078 366.175 115.286 366.06 115.52Z" fill="#263238"/>
<path d="M364.24 132.61L360.37 134.06C360.449 134.323 360.582 134.567 360.76 134.777C360.938 134.986 361.157 135.157 361.404 135.278C361.651 135.399 361.92 135.468 362.194 135.48C362.469 135.493 362.743 135.448 363 135.35C363.522 135.144 363.944 134.743 364.175 134.231C364.407 133.72 364.43 133.138 364.24 132.61Z" fill="#9A4A4D"/>
<path d="M350.54 116.92L353.7 114.48C353.551 114.267 353.361 114.086 353.14 113.948C352.919 113.811 352.672 113.72 352.415 113.68C352.158 113.641 351.895 113.654 351.644 113.72C351.392 113.785 351.156 113.901 350.95 114.06C350.529 114.394 350.251 114.876 350.175 115.408C350.099 115.94 350.229 116.481 350.54 116.92Z" fill="#263238"/>
<path d="M351.25 120.89C351.262 121.21 351.367 121.519 351.553 121.779C351.74 122.039 351.998 122.238 352.297 122.352C352.595 122.467 352.921 122.491 353.233 122.421C353.545 122.352 353.83 122.192 354.052 121.962C354.274 121.731 354.424 121.441 354.482 121.127C354.54 120.812 354.504 120.488 354.379 120.193C354.254 119.899 354.046 119.648 353.779 119.471C353.512 119.294 353.2 119.2 352.88 119.2C352.662 119.203 352.446 119.248 352.245 119.335C352.045 119.422 351.864 119.547 351.712 119.704C351.56 119.862 351.441 120.047 351.362 120.251C351.283 120.454 351.245 120.672 351.25 120.89Z" fill="#263238"/>
<path d="M359.94 119.55L359.38 129.77L354.05 127.95L359.94 119.55Z" fill="#9A4A4D"/>
<path d="M358 155.81C359 158.17 360.83 159.14 364.15 159.51C365.822 159.625 367.499 159.401 369.082 158.852C370.665 158.302 372.12 157.437 373.36 156.31L369.22 152.19L364 156.14L363.55 151.73L358 155.81Z" fill="#214E34"/>
<path opacity="0.2" d="M358 155.81C359 158.17 360.83 159.14 364.15 159.51C365.822 159.625 367.499 159.401 369.082 158.852C370.665 158.302 372.12 157.437 373.36 156.31L369.22 152.19L364 156.14L363.55 151.73L358 155.81Z" fill="black"/>
<path d="M360.62 154.52C360.137 155.944 359.953 157.452 360.08 158.95C360.233 160.289 360.74 161.563 361.55 162.64C362.077 162.975 362.674 163.185 363.295 163.252C363.915 163.32 364.543 163.244 365.13 163.03C366.197 162.113 367.053 160.975 367.64 159.697C368.227 158.418 368.53 157.027 368.53 155.62L363.99 156.14L360.62 154.52Z" fill="#214E34"/>
<path d="M361.54 162.64C361.54 162.64 354.77 200.01 354.54 203.03C354.31 206.05 358.43 216.76 361.01 216.85C363.59 216.94 368.66 207.24 368.74 204.5C368.82 201.76 365.48 162.73 365.48 162.73L361.54 162.64Z" fill="#214E34"/>
<path opacity="0.2" d="M365.44 162.73C364.886 163.182 364.188 163.422 363.473 163.405C362.758 163.389 362.073 163.117 361.54 162.64L361.44 163.23C361.44 163.23 362.73 164.55 365.51 163.76L365.44 162.73Z" fill="black"/>
<path d="M364 156.14L379.16 144.58L379.22 141.58C379.22 141.58 382.77 142.52 383.56 148.75C381.4 153.75 377.48 158.05 371.73 161.33L368.54 155.65L364 156.14Z" fill="#E0E0E0"/>
<path d="M363.58 143C363.58 143 360.02 144.65 358.5 147.16C356.98 149.67 357 157.82 357 157.82L360.63 154.52L364 156.14C363.68 152.95 363.58 147.48 363.58 147.48V143Z" fill="#E0E0E0"/>
<path d="M426.38 198C420.05 187.2 410.05 167.72 404.98 161C397.9 151.6 398.31 151.78 391.72 149.73C390.65 152.9 388.19 165.98 392.92 175.38L409.29 198.68C402.64 200.27 390.74 203.38 386.71 202.55L385.42 214.55C409.18 212.55 420.12 212.2 426.91 207.83C429.87 205.87 428.35 201.34 426.38 198Z" fill="#B16668"/>
<path d="M393.83 177C390.24 172.74 387.65 159.25 390.72 149.66C396.95 150.19 398.43 151.45 402.93 157C409.49 165.07 416.71 179.55 419.64 184.38C422.57 189.21 429.64 201.68 429.33 204.38C429.02 207.08 426.8 209.65 421.01 211.25C415.22 212.85 389.81 214.52 389.81 214.52C388.997 210.574 388.628 206.549 388.71 202.52C396.35 201.03 403.3 199.59 407.8 198.31C407.8 198.28 397 180.79 393.83 177Z" fill="#E0E0E0"/>
<path d="M387.78 202.71C386.638 202.587 385.549 202.159 384.63 201.47C383.58 200.75 382.63 199.94 381.48 199.29C378.716 197.825 375.849 196.564 372.9 195.52C372.624 195.385 372.317 195.327 372.01 195.35C371.843 195.397 371.689 195.48 371.56 195.594C371.43 195.709 371.327 195.851 371.26 196.01C371.135 196.329 371.064 196.667 371.05 197.01C370.98 197.73 371.16 198.46 371.05 199.19C370.19 206.45 386.14 206.28 387.78 202.71Z" fill="#B16668"/>
<path d="M375.89 218.52L380.76 199.18L374.91 197.71L370.05 217.05C369.98 217.324 369.993 217.613 370.087 217.881C370.182 218.148 370.353 218.381 370.58 218.55C371.14 219.032 371.806 219.374 372.524 219.548C373.242 219.722 373.992 219.723 374.71 219.55C374.985 219.509 375.242 219.391 375.451 219.208C375.66 219.025 375.813 218.787 375.89 218.52Z" fill="#214E34"/>
<path opacity="0.25" d="M375.89 218.52L380.76 199.18L374.91 197.71L370.05 217.05C369.98 217.324 369.993 217.613 370.087 217.881C370.182 218.148 370.353 218.381 370.58 218.55C371.14 219.032 371.806 219.374 372.524 219.548C373.242 219.722 373.992 219.723 374.71 219.55C374.985 219.509 375.242 219.391 375.451 219.208C375.66 219.025 375.813 218.787 375.89 218.52Z" fill="black"/>
<path d="M376.06 196.73C376.78 196.558 377.531 196.559 378.25 196.733C378.97 196.907 379.638 197.248 380.2 197.73C381.2 198.67 380.91 199.73 379.6 200.11C378.88 200.282 378.13 200.281 377.41 200.107C376.69 199.933 376.022 199.592 375.46 199.11C375.235 198.962 375.062 198.747 374.964 198.495C374.866 198.244 374.849 197.969 374.915 197.707C374.981 197.446 375.127 197.211 375.332 197.036C375.537 196.861 375.791 196.754 376.06 196.73Z" fill="#214E34"/>
<path opacity="0.1" d="M376.06 196.73C376.78 196.558 377.531 196.559 378.25 196.733C378.97 196.907 379.638 197.248 380.2 197.73C381.2 198.67 380.91 199.73 379.6 200.11C378.88 200.282 378.13 200.281 377.41 200.107C376.69 199.933 376.022 199.592 375.46 199.11C375.235 198.962 375.062 198.747 374.964 198.495C374.866 198.244 374.849 197.969 374.915 197.707C374.981 197.446 375.127 197.211 375.332 197.036C375.537 196.861 375.791 196.754 376.06 196.73Z" fill="black"/>
<path d="M376.33 198L409.85 67.3C409.897 67.0782 409.989 66.8682 410.119 66.6826C410.25 66.4971 410.416 66.3399 410.609 66.2206C410.802 66.1012 411.017 66.0221 411.241 65.9881C411.465 65.954 411.694 65.9657 411.914 66.0225C412.133 66.0792 412.339 66.1799 412.519 66.3183C412.698 66.4567 412.848 66.6301 412.959 66.8279C413.07 67.0258 413.139 67.2441 413.164 67.4696C413.188 67.695 413.166 67.9231 413.1 68.14L379.59 198.8C378.74 199.48 376.56 198.89 376.33 198Z" fill="#263238"/>
<path d="M387.78 202.77C386.17 203.43 383.07 202.77 379.88 202.54C377.31 204.35 374.1 202.25 374.03 201.1L373.34 198.64C373.34 198.64 370.67 198.5 369.46 199.64C368.25 200.78 368.96 202.43 368.46 203.11C367.885 203.95 367.452 204.879 367.18 205.86C366.96 206.72 365.89 208.44 365.96 209.3C366.03 210.16 365.96 212.11 365.96 212.11C366.563 213.28 367.468 214.268 368.581 214.971C369.694 215.674 370.974 216.067 372.29 216.11C377.06 216.45 385.43 214.47 385.43 214.47L387.78 202.77Z" fill="#B16668"/>
</svg>
